<svg width="489" height="61" viewBox="0 0 489 61" fill="none" xmlns="http://www.w3.org/2000/svg">
<mask id="path-1-inside-1_4006_964" fill="white">
<path d="M485.519 38.5105C484.917 38.5105 484.311 38.4478 483.724 38.524C482.661 38.6584 482.127 38.2057 481.761 37.233C479.943 32.3737 478.066 27.537 476.217 22.6912C475.385 20.5126 474.58 18.3251 473.725 16.1555C472.599 13.309 470.017 11.9552 467.34 12.807C465.658 13.3404 464.645 14.5866 463.98 16.1376C461.755 21.3419 459.548 26.5597 457.323 31.7641C455.935 35.014 453.728 37.4302 450.129 38.1878C445.019 39.2636 439.999 37.7036 437.77 32.1989C434.5 24.1301 431.339 16.021 428.124 7.92982C427.816 7.15881 428.002 6.84054 428.87 6.86295C430.349 6.89881 431.832 6.90778 433.315 6.86295C434.156 6.84054 434.545 7.23949 434.821 7.96568C436.372 12.0628 437.951 16.1465 439.52 20.2392C440.655 23.2022 441.808 26.1563 442.911 29.1283C443.766 31.4324 445.371 32.7906 447.84 32.961C449.125 33.0506 450.45 32.6831 451.133 31.522C452.444 29.2986 453.706 27.0349 454.764 24.6905C456.365 21.1492 457.78 17.5227 459.272 13.9321C460.842 10.1443 463.564 7.64741 467.684 6.9795C471.681 6.334 475.832 7.74603 477.976 11.6504C479.495 14.4162 480.594 17.4151 481.779 20.3513C484.045 25.9725 486.242 31.6251 488.458 37.2688C488.938 38.4836 488.915 38.506 487.599 38.5105C487.504 38.5105 487.409 38.5105 487.314 38.5105C486.713 38.5105 486.116 38.5105 485.514 38.5105H485.519Z"/>
<path d="M390.844 20.3154C390.844 24.2915 390.857 28.2632 390.844 32.2393C390.83 35.0096 388.985 37.6902 386.389 38.3222C382.808 39.1919 379.339 38.9946 376.603 36.1123C375.844 35.3099 375.242 34.3147 374.754 33.3151C371.656 27.0215 368.613 20.7054 365.551 14.3938C365.443 14.1697 365.316 13.95 365.199 13.7349C364.828 13.0714 364.222 12.8204 363.521 13.0042C362.811 13.1925 362.341 13.6945 362.255 14.4611C362.232 14.6762 362.255 14.9004 362.255 15.12C362.255 22.5029 362.255 29.8904 362.255 37.2733C362.255 38.5464 362.114 38.6898 360.857 38.6943C359.786 38.6943 358.709 38.6809 357.637 38.6988C356.973 38.7077 356.643 38.3984 356.606 37.7619C356.593 37.5423 356.588 37.3226 356.588 37.1074C356.588 29.5049 356.588 21.9023 356.588 14.2952C356.588 12.0539 357.199 10.0322 358.931 8.48567C360.803 6.81364 363.105 6.72847 365.411 6.9795C368.491 7.32018 370.526 9.14462 371.864 11.8297C375.025 18.1548 378.182 24.4843 381.374 30.7959C381.641 31.3248 382.062 31.8851 382.559 32.172C383.839 32.8982 385.123 32.1541 385.286 30.6928C385.317 30.4148 385.295 30.1279 385.295 29.85C385.295 22.6509 385.295 15.4562 385.295 8.25706C385.295 7.06915 385.453 6.91226 386.656 6.90778C387.664 6.90329 388.677 6.90329 389.686 6.90778C390.482 6.91226 390.866 7.25294 390.857 8.11361C390.825 12.1794 390.844 16.2496 390.844 20.3154Z"/>
<path d="M394.393 22.4626C394.099 18.3386 395.551 14.7479 398.215 11.6011C400.272 9.16704 402.985 7.78189 406.074 7.14536C409.931 6.35193 413.811 6.25331 417.605 7.47259C423.204 9.27014 426.636 13.1342 427.74 18.8092C428.459 22.5074 428.436 26.2549 426.799 29.8186C424.655 34.4896 421.106 37.5423 415.991 38.3357C411.41 39.0484 406.739 39.1919 402.42 37.0088C397.875 34.7182 395.307 30.9572 394.556 25.968C394.506 25.6274 394.407 25.2912 394.398 24.9505C394.375 24.1391 394.389 23.3233 394.389 22.4626H394.393ZM411.17 33.7589C417.447 34.4492 422.652 29.0342 422.426 22.364C422.254 17.2537 418.392 11.6639 411.003 11.758C404.826 11.8387 400.15 16.3707 399.924 22.3505C399.689 28.4918 404.319 34.382 411.17 33.7634V33.7589Z"/>
<path d="M346.26 22.7091C346.26 17.832 346.278 12.9549 346.242 8.07775C346.237 7.20811 346.468 6.81364 347.395 6.85847C348.557 6.91674 349.724 6.89433 350.89 6.88088C351.587 6.87192 351.836 7.22156 351.827 7.87155C351.808 8.90256 351.827 9.93357 351.827 10.9646C351.827 19.6878 351.827 28.4111 351.827 37.1343C351.827 38.4836 351.799 38.5105 350.447 38.5105C349.407 38.5105 348.363 38.4657 347.327 38.524C346.486 38.5688 346.242 38.2416 346.246 37.4347C346.273 32.5262 346.26 27.6177 346.26 22.7091Z"/>
<path d="M365.253 46.0234V54.2312H361.861V40.8953C363.01 40.8953 364.167 40.8639 365.316 40.9222C365.556 40.9356 365.854 41.227 365.99 41.4691C367.541 44.1407 369.101 46.8034 370.571 49.5199C371 50.3133 371.145 51.2547 371.457 52.2409C372.506 48.2199 375.088 45.109 376.906 41.6035C377.196 41.0477 377.571 40.8549 378.182 40.8818C379.149 40.9222 380.122 40.8908 381.144 40.8908V54.2222H377.806V46.1534C377.612 46.2072 377.508 46.2207 377.503 46.2431C377.349 48.4979 375.952 50.1968 374.849 52.0212C373.37 54.4598 373.37 54.4464 370.498 54.3298C369.874 54.3029 369.445 54.1191 369.115 53.5543C368.486 52.4785 367.699 51.4878 367.134 50.3806C366.442 49.0223 365.913 47.5789 365.248 46.0234H365.253Z"/>
<path d="M464.039 54.2805C462.714 54.2805 461.389 54.3343 460.068 54.267C458.657 54.1953 457.531 53.4781 456.781 52.3305C454.89 49.4258 454.863 45.5214 456.948 42.6749C457.825 41.478 459.105 40.8953 460.615 40.8908C462.7 40.8818 464.78 40.8908 466.865 40.8908C469.809 40.8908 471.464 42.128 472.287 44.9476C473.033 47.4938 472.812 49.9368 471.405 52.214C470.555 53.5947 469.262 54.2715 467.629 54.285C466.431 54.2939 465.233 54.285 464.034 54.285L464.039 54.2805ZM464.102 43.9525C463.315 43.9525 462.524 43.9435 461.737 43.9525C460.502 43.9614 459.526 44.5576 459.277 45.7097C459.064 46.6958 458.924 47.7717 459.091 48.7534C459.385 50.4792 460.091 51.313 462.09 51.2682C463.605 51.2323 465.115 51.2592 466.63 51.2368C467.598 51.2188 468.33 50.7751 468.706 49.8785C469.325 48.4082 469.334 46.911 468.751 45.4272C468.366 44.45 467.607 43.9794 466.562 43.9614C465.744 43.948 464.921 43.9614 464.102 43.9614V43.9525Z"/>
<path d="M395.384 54.2446V44.71H397.979C398.02 45.109 398.061 45.5259 398.129 46.2341C398.997 44.5307 400.39 44.6338 401.774 44.6383C405.052 44.6562 408.335 44.6428 411.614 44.6428C414.191 44.6428 415.557 45.759 415.76 48.323C415.914 50.2461 415.792 52.1871 415.792 54.1998H413.183C413.156 53.8502 413.124 53.4915 413.083 53.0029C411.238 55.1546 408.824 54.1864 406.635 54.2402C405.509 54.267 404.962 53.3481 404.713 52.2723C404.333 50.6182 405.228 48.592 407.408 48.7489C409.099 48.8699 410.804 48.7713 412.491 48.7713C412.69 47.8434 412.278 47.5206 411.496 47.5206C407.679 47.5206 403.863 47.5206 400.046 47.5206C399.309 47.5206 398.802 47.8568 398.757 48.5965C398.671 50.0578 398.653 51.5237 398.613 52.9895C398.599 53.4109 398.613 53.8322 398.613 54.2446H395.384ZM412.518 50.3402C411.198 50.3402 409.94 50.3089 408.683 50.3671C408.412 50.3806 408.159 50.7213 407.901 50.9095C408.141 51.1023 408.371 51.4475 408.62 51.4609C409.624 51.5192 410.632 51.4923 411.636 51.4609C412.274 51.443 412.618 51.1113 412.518 50.3402Z"/>
<path d="M430.43 40.5232H433.623V46.01C435.201 44.2035 437.069 44.4545 438.873 44.8669C440.352 45.2031 441.256 46.3103 441.387 47.8031C441.55 49.6992 441.532 51.6088 441.6 53.514C441.618 54.0608 441.387 54.3253 440.822 54.3164C440.035 54.3029 439.253 54.3164 438.321 54.3164C438.321 52.7743 438.335 51.2861 438.312 49.7934C438.303 49.3361 438.258 48.8565 438.109 48.4217C437.729 47.2965 437.024 47.4938 434.948 47.5565C434.066 47.5834 433.65 48.2244 433.65 49.0941C433.65 50.4389 433.65 51.7837 433.65 53.1285C433.65 53.4691 433.65 53.8053 433.65 54.285H430.439V40.5232H430.43Z"/>
<path d="M390.355 48.7758C390.464 47.8524 390.057 47.5117 389.225 47.5206C387.271 47.5341 385.313 47.5206 383.278 47.5206V44.6607C385.661 44.6607 388.026 44.5352 390.373 44.7011C392.232 44.8311 393.426 46.2117 393.611 48.3813C393.774 50.2999 393.647 52.2409 393.647 54.2312H390.997C390.966 53.8277 390.939 53.4333 390.902 52.9716C389.017 55.177 386.529 54.2805 384.255 54.2267C383.065 54.1998 382.319 52.7116 382.45 51.1471C382.564 49.7754 383.5 48.7937 384.766 48.7803C386.624 48.7623 388.483 48.7758 390.351 48.7758H390.355ZM390.369 50.3402C389.053 50.3402 387.796 50.3089 386.538 50.3627C386.263 50.3761 386.005 50.6944 385.738 50.8692C385.996 51.0754 386.24 51.4385 386.511 51.4564C387.447 51.5281 388.397 51.4833 389.338 51.4744C390.016 51.4699 390.382 51.1426 390.369 50.3313V50.3402Z"/>
<path d="M425.438 54.2581C425.438 53.6126 425.456 52.9716 425.438 52.3305C425.393 51.0575 425.492 49.7485 425.221 48.5248C424.85 46.8258 423.326 47.7044 422.29 47.5431C421.535 47.4265 421.006 47.821 420.952 48.6323C420.87 49.874 420.816 51.1157 420.766 52.3574C420.744 52.9492 420.766 53.5409 420.766 54.2088H417.542V44.7145H420.133C420.201 45.0373 420.264 45.3376 420.332 45.6559C422.444 44.3649 424.61 44.2214 426.822 45.2121C427.957 45.7186 428.481 46.6869 428.535 47.9062C428.63 49.9906 428.721 52.075 428.816 54.2581H425.438Z"/>
<path d="M450.83 48.7758C450.789 48.332 450.757 47.9779 450.716 47.57C451.675 47.2876 452.625 47.0051 453.62 46.7093C454.488 49.1972 453.963 51.6985 454.117 54.2267H451.472C451.413 53.8546 451.354 53.4736 451.259 52.855C450.49 54.2671 449.328 54.3657 448.103 54.3388C447.063 54.3164 446.023 54.3433 444.982 54.2939C443.911 54.2446 443.178 53.5409 443.07 52.483C443.011 51.9316 443.006 51.3668 443.061 50.8154C443.196 49.4661 443.983 48.7892 445.371 48.7848C447.162 48.7758 448.957 48.7848 450.834 48.7848L450.83 48.7758ZM450.775 50.3402C449.491 50.3402 448.207 50.3133 446.922 50.3627C446.66 50.3716 446.411 50.654 446.154 50.8109C446.389 51.0395 446.61 51.4475 446.864 51.4609C447.868 51.5281 448.881 51.4968 449.884 51.4609C450.522 51.4385 450.866 51.1068 450.775 50.3402Z"/>
<path d="M451.16 44.7324C450.988 45.5483 450.861 46.3103 450.644 47.05C450.585 47.2472 450.264 47.4982 450.061 47.5027C447.958 47.5341 445.855 47.5251 443.689 47.5251V44.7369H451.16V44.7324Z"/>
</mask>
<path d="M485.519 38.5105C484.917 38.5105 484.311 38.4478 483.724 38.524C482.661 38.6584 482.127 38.2057 481.761 37.233C479.943 32.3737 478.066 27.537 476.217 22.6912C475.385 20.5126 474.58 18.3251 473.725 16.1555C472.599 13.309 470.017 11.9552 467.34 12.807C465.658 13.3404 464.645 14.5866 463.98 16.1376C461.755 21.3419 459.548 26.5597 457.323 31.7641C455.935 35.014 453.728 37.4302 450.129 38.1878C445.019 39.2636 439.999 37.7036 437.77 32.1989C434.5 24.1301 431.339 16.021 428.124 7.92982C427.816 7.15881 428.002 6.84054 428.87 6.86295C430.349 6.89881 431.832 6.90778 433.315 6.86295C434.156 6.84054 434.545 7.23949 434.821 7.96568C436.372 12.0628 437.951 16.1465 439.52 20.2392C440.655 23.2022 441.808 26.1563 442.911 29.1283C443.766 31.4324 445.371 32.7906 447.84 32.961C449.125 33.0506 450.45 32.6831 451.133 31.522C452.444 29.2986 453.706 27.0349 454.764 24.6905C456.365 21.1492 457.78 17.5227 459.272 13.9321C460.842 10.1443 463.564 7.64741 467.684 6.9795C471.681 6.334 475.832 7.74603 477.976 11.6504C479.495 14.4162 480.594 17.4151 481.779 20.3513C484.045 25.9725 486.242 31.6251 488.458 37.2688C488.938 38.4836 488.915 38.506 487.599 38.5105C487.504 38.5105 487.409 38.5105 487.314 38.5105C486.713 38.5105 486.116 38.5105 485.514 38.5105H485.519Z" fill="white"/>
<path d="M390.844 20.3154C390.844 24.2915 390.857 28.2632 390.844 32.2393C390.83 35.0096 388.985 37.6902 386.389 38.3222C382.808 39.1919 379.339 38.9946 376.603 36.1123C375.844 35.3099 375.242 34.3147 374.754 33.3151C371.656 27.0215 368.613 20.7054 365.551 14.3938C365.443 14.1697 365.316 13.95 365.199 13.7349C364.828 13.0714 364.222 12.8204 363.521 13.0042C362.811 13.1925 362.341 13.6945 362.255 14.4611C362.232 14.6762 362.255 14.9004 362.255 15.12C362.255 22.5029 362.255 29.8904 362.255 37.2733C362.255 38.5464 362.114 38.6898 360.857 38.6943C359.786 38.6943 358.709 38.6809 357.637 38.6988C356.973 38.7077 356.643 38.3984 356.606 37.7619C356.593 37.5423 356.588 37.3226 356.588 37.1074C356.588 29.5049 356.588 21.9023 356.588 14.2952C356.588 12.0539 357.199 10.0322 358.931 8.48567C360.803 6.81364 363.105 6.72847 365.411 6.9795C368.491 7.32018 370.526 9.14462 371.864 11.8297C375.025 18.1548 378.182 24.4843 381.374 30.7959C381.641 31.3248 382.062 31.8851 382.559 32.172C383.839 32.8982 385.123 32.1541 385.286 30.6928C385.317 30.4148 385.295 30.1279 385.295 29.85C385.295 22.6509 385.295 15.4562 385.295 8.25706C385.295 7.06915 385.453 6.91226 386.656 6.90778C387.664 6.90329 388.677 6.90329 389.686 6.90778C390.482 6.91226 390.866 7.25294 390.857 8.11361C390.825 12.1794 390.844 16.2496 390.844 20.3154Z" fill="white"/>
<path d="M394.393 22.4626C394.099 18.3386 395.551 14.7479 398.215 11.6011C400.272 9.16704 402.985 7.78189 406.074 7.14536C409.931 6.35193 413.811 6.25331 417.605 7.47259C423.204 9.27014 426.636 13.1342 427.74 18.8092C428.459 22.5074 428.436 26.2549 426.799 29.8186C424.655 34.4896 421.106 37.5423 415.991 38.3357C411.41 39.0484 406.739 39.1919 402.42 37.0088C397.875 34.7182 395.307 30.9572 394.556 25.968C394.506 25.6274 394.407 25.2912 394.398 24.9505C394.375 24.1391 394.389 23.3233 394.389 22.4626H394.393ZM411.17 33.7589C417.447 34.4492 422.652 29.0342 422.426 22.364C422.254 17.2537 418.392 11.6639 411.003 11.758C404.826 11.8387 400.15 16.3707 399.924 22.3505C399.689 28.4918 404.319 34.382 411.17 33.7634V33.7589Z" fill="white"/>
<path d="M346.26 22.7091C346.26 17.832 346.278 12.9549 346.242 8.07775C346.237 7.20811 346.468 6.81364 347.395 6.85847C348.557 6.91674 349.724 6.89433 350.89 6.88088C351.587 6.87192 351.836 7.22156 351.827 7.87155C351.808 8.90256 351.827 9.93357 351.827 10.9646C351.827 19.6878 351.827 28.4111 351.827 37.1343C351.827 38.4836 351.799 38.5105 350.447 38.5105C349.407 38.5105 348.363 38.4657 347.327 38.524C346.486 38.5688 346.242 38.2416 346.246 37.4347C346.273 32.5262 346.26 27.6177 346.26 22.7091Z" fill="white"/>
<path d="M365.253 46.0234V54.2312H361.861V40.8953C363.01 40.8953 364.167 40.8639 365.316 40.9222C365.556 40.9356 365.854 41.227 365.99 41.4691C367.541 44.1407 369.101 46.8034 370.571 49.5199C371 50.3133 371.145 51.2547 371.457 52.2409C372.506 48.2199 375.088 45.109 376.906 41.6035C377.196 41.0477 377.571 40.8549 378.182 40.8818C379.149 40.9222 380.122 40.8908 381.144 40.8908V54.2222H377.806V46.1534C377.612 46.2072 377.508 46.2207 377.503 46.2431C377.349 48.4979 375.952 50.1968 374.849 52.0212C373.37 54.4598 373.37 54.4464 370.498 54.3298C369.874 54.3029 369.445 54.1191 369.115 53.5543C368.486 52.4785 367.699 51.4878 367.134 50.3806C366.442 49.0223 365.913 47.5789 365.248 46.0234H365.253Z" fill="white"/>
<path d="M464.039 54.2805C462.714 54.2805 461.389 54.3343 460.068 54.267C458.657 54.1953 457.531 53.4781 456.781 52.3305C454.89 49.4258 454.863 45.5214 456.948 42.6749C457.825 41.478 459.105 40.8953 460.615 40.8908C462.7 40.8818 464.78 40.8908 466.865 40.8908C469.809 40.8908 471.464 42.128 472.287 44.9476C473.033 47.4938 472.812 49.9368 471.405 52.214C470.555 53.5947 469.262 54.2715 467.629 54.285C466.431 54.2939 465.233 54.285 464.034 54.285L464.039 54.2805ZM464.102 43.9525C463.315 43.9525 462.524 43.9435 461.737 43.9525C460.502 43.9614 459.526 44.5576 459.277 45.7097C459.064 46.6958 458.924 47.7717 459.091 48.7534C459.385 50.4792 460.091 51.313 462.09 51.2682C463.605 51.2323 465.115 51.2592 466.63 51.2368C467.598 51.2188 468.33 50.7751 468.706 49.8785C469.325 48.4082 469.334 46.911 468.751 45.4272C468.366 44.45 467.607 43.9794 466.562 43.9614C465.744 43.948 464.921 43.9614 464.102 43.9614V43.9525Z" fill="white"/>
<path d="M395.384 54.2446V44.71H397.979C398.02 45.109 398.061 45.5259 398.129 46.2341C398.997 44.5307 400.39 44.6338 401.774 44.6383C405.052 44.6562 408.335 44.6428 411.614 44.6428C414.191 44.6428 415.557 45.759 415.76 48.323C415.914 50.2461 415.792 52.1871 415.792 54.1998H413.183C413.156 53.8502 413.124 53.4915 413.083 53.0029C411.238 55.1546 408.824 54.1864 406.635 54.2402C405.509 54.267 404.962 53.3481 404.713 52.2723C404.333 50.6182 405.228 48.592 407.408 48.7489C409.099 48.8699 410.804 48.7713 412.491 48.7713C412.69 47.8434 412.278 47.5206 411.496 47.5206C407.679 47.5206 403.863 47.5206 400.046 47.5206C399.309 47.5206 398.802 47.8568 398.757 48.5965C398.671 50.0578 398.653 51.5237 398.613 52.9895C398.599 53.4109 398.613 53.8322 398.613 54.2446H395.384ZM412.518 50.3402C411.198 50.3402 409.94 50.3089 408.683 50.3671C408.412 50.3806 408.159 50.7213 407.901 50.9095C408.141 51.1023 408.371 51.4475 408.62 51.4609C409.624 51.5192 410.632 51.4923 411.636 51.4609C412.274 51.443 412.618 51.1113 412.518 50.3402Z" fill="white"/>
<path d="M430.43 40.5232H433.623V46.01C435.201 44.2035 437.069 44.4545 438.873 44.8669C440.352 45.2031 441.256 46.3103 441.387 47.8031C441.55 49.6992 441.532 51.6088 441.6 53.514C441.618 54.0608 441.387 54.3253 440.822 54.3164C440.035 54.3029 439.253 54.3164 438.321 54.3164C438.321 52.7743 438.335 51.2861 438.312 49.7934C438.303 49.3361 438.258 48.8565 438.109 48.4217C437.729 47.2965 437.024 47.4938 434.948 47.5565C434.066 47.5834 433.65 48.2244 433.65 49.0941C433.65 50.4389 433.65 51.7837 433.65 53.1285C433.65 53.4691 433.65 53.8053 433.65 54.285H430.439V40.5232H430.43Z" fill="white"/>
<path d="M390.355 48.7758C390.464 47.8524 390.057 47.5117 389.225 47.5206C387.271 47.5341 385.313 47.5206 383.278 47.5206V44.6607C385.661 44.6607 388.026 44.5352 390.373 44.7011C392.232 44.8311 393.426 46.2117 393.611 48.3813C393.774 50.2999 393.647 52.2409 393.647 54.2312H390.997C390.966 53.8277 390.939 53.4333 390.902 52.9716C389.017 55.177 386.529 54.2805 384.255 54.2267C383.065 54.1998 382.319 52.7116 382.45 51.1471C382.564 49.7754 383.5 48.7937 384.766 48.7803C386.624 48.7623 388.483 48.7758 390.351 48.7758H390.355ZM390.369 50.3402C389.053 50.3402 387.796 50.3089 386.538 50.3627C386.263 50.3761 386.005 50.6944 385.738 50.8692C385.996 51.0754 386.24 51.4385 386.511 51.4564C387.447 51.5281 388.397 51.4833 389.338 51.4744C390.016 51.4699 390.382 51.1426 390.369 50.3313V50.3402Z" fill="white"/>
<path d="M425.438 54.2581C425.438 53.6126 425.456 52.9716 425.438 52.3305C425.393 51.0575 425.492 49.7485 425.221 48.5248C424.85 46.8258 423.326 47.7044 422.29 47.5431C421.535 47.4265 421.006 47.821 420.952 48.6323C420.87 49.874 420.816 51.1157 420.766 52.3574C420.744 52.9492 420.766 53.5409 420.766 54.2088H417.542V44.7145H420.133C420.201 45.0373 420.264 45.3376 420.332 45.6559C422.444 44.3649 424.61 44.2214 426.822 45.2121C427.957 45.7186 428.481 46.6869 428.535 47.9062C428.63 49.9906 428.721 52.075 428.816 54.2581H425.438Z" fill="white"/>
<path d="M450.83 48.7758C450.789 48.332 450.757 47.9779 450.716 47.57C451.675 47.2876 452.625 47.0051 453.62 46.7093C454.488 49.1972 453.963 51.6985 454.117 54.2267H451.472C451.413 53.8546 451.354 53.4736 451.259 52.855C450.49 54.2671 449.328 54.3657 448.103 54.3388C447.063 54.3164 446.023 54.3433 444.982 54.2939C443.911 54.2446 443.178 53.5409 443.07 52.483C443.011 51.9316 443.006 51.3668 443.061 50.8154C443.196 49.4661 443.983 48.7892 445.371 48.7848C447.162 48.7758 448.957 48.7848 450.834 48.7848L450.83 48.7758ZM450.775 50.3402C449.491 50.3402 448.207 50.3133 446.922 50.3627C446.66 50.3716 446.411 50.654 446.154 50.8109C446.389 51.0395 446.61 51.4475 446.864 51.4609C447.868 51.5281 448.881 51.4968 449.884 51.4609C450.522 51.4385 450.866 51.1068 450.775 50.3402Z" fill="white"/>
<path d="M451.16 44.7324C450.988 45.5483 450.861 46.3103 450.644 47.05C450.585 47.2472 450.264 47.4982 450.061 47.5027C447.958 47.5341 445.855 47.5251 443.689 47.5251V44.7369H451.16V44.7324Z" fill="white"/>
<path d="M485.519 38.5105C484.917 38.5105 484.311 38.4478 483.724 38.524C482.661 38.6584 482.127 38.2057 481.761 37.233C479.943 32.3737 478.066 27.537 476.217 22.6912C475.385 20.5126 474.58 18.3251 473.725 16.1555C472.599 13.309 470.017 11.9552 467.34 12.807C465.658 13.3404 464.645 14.5866 463.98 16.1376C461.755 21.3419 459.548 26.5597 457.323 31.7641C455.935 35.014 453.728 37.4302 450.129 38.1878C445.019 39.2636 439.999 37.7036 437.77 32.1989C434.5 24.1301 431.339 16.021 428.124 7.92982C427.816 7.15881 428.002 6.84054 428.87 6.86295C430.349 6.89881 431.832 6.90778 433.315 6.86295C434.156 6.84054 434.545 7.23949 434.821 7.96568C436.372 12.0628 437.951 16.1465 439.52 20.2392C440.655 23.2022 441.808 26.1563 442.911 29.1283C443.766 31.4324 445.371 32.7906 447.84 32.961C449.125 33.0506 450.45 32.6831 451.133 31.522C452.444 29.2986 453.706 27.0349 454.764 24.6905C456.365 21.1492 457.78 17.5227 459.272 13.9321C460.842 10.1443 463.564 7.64741 467.684 6.9795C471.681 6.334 475.832 7.74603 477.976 11.6504C479.495 14.4162 480.594 17.4151 481.779 20.3513C484.045 25.9725 486.242 31.6251 488.458 37.2688C488.938 38.4836 488.915 38.506 487.599 38.5105C487.504 38.5105 487.409 38.5105 487.314 38.5105C486.713 38.5105 486.116 38.5105 485.514 38.5105H485.519Z" stroke="white" stroke-width="2" mask="url(#path-1-inside-1_4006_964)"/>
<path d="M390.844 20.3154C390.844 24.2915 390.857 28.2632 390.844 32.2393C390.83 35.0096 388.985 37.6902 386.389 38.3222C382.808 39.1919 379.339 38.9946 376.603 36.1123C375.844 35.3099 375.242 34.3147 374.754 33.3151C371.656 27.0215 368.613 20.7054 365.551 14.3938C365.443 14.1697 365.316 13.95 365.199 13.7349C364.828 13.0714 364.222 12.8204 363.521 13.0042C362.811 13.1925 362.341 13.6945 362.255 14.4611C362.232 14.6762 362.255 14.9004 362.255 15.12C362.255 22.5029 362.255 29.8904 362.255 37.2733C362.255 38.5464 362.114 38.6898 360.857 38.6943C359.786 38.6943 358.709 38.6809 357.637 38.6988C356.973 38.7077 356.643 38.3984 356.606 37.7619C356.593 37.5423 356.588 37.3226 356.588 37.1074C356.588 29.5049 356.588 21.9023 356.588 14.2952C356.588 12.0539 357.199 10.0322 358.931 8.48567C360.803 6.81364 363.105 6.72847 365.411 6.9795C368.491 7.32018 370.526 9.14462 371.864 11.8297C375.025 18.1548 378.182 24.4843 381.374 30.7959C381.641 31.3248 382.062 31.8851 382.559 32.172C383.839 32.8982 385.123 32.1541 385.286 30.6928C385.317 30.4148 385.295 30.1279 385.295 29.85C385.295 22.6509 385.295 15.4562 385.295 8.25706C385.295 7.06915 385.453 6.91226 386.656 6.90778C387.664 6.90329 388.677 6.90329 389.686 6.90778C390.482 6.91226 390.866 7.25294 390.857 8.11361C390.825 12.1794 390.844 16.2496 390.844 20.3154Z" stroke="white" stroke-width="2" mask="url(#path-1-inside-1_4006_964)"/>
<path d="M394.393 22.4626C394.099 18.3386 395.551 14.7479 398.215 11.6011C400.272 9.16704 402.985 7.78189 406.074 7.14536C409.931 6.35193 413.811 6.25331 417.605 7.47259C423.204 9.27014 426.636 13.1342 427.74 18.8092C428.459 22.5074 428.436 26.2549 426.799 29.8186C424.655 34.4896 421.106 37.5423 415.991 38.3357C411.41 39.0484 406.739 39.1919 402.42 37.0088C397.875 34.7182 395.307 30.9572 394.556 25.968C394.506 25.6274 394.407 25.2912 394.398 24.9505C394.375 24.1391 394.389 23.3233 394.389 22.4626H394.393ZM411.17 33.7589C417.447 34.4492 422.652 29.0342 422.426 22.364C422.254 17.2537 418.392 11.6639 411.003 11.758C404.826 11.8387 400.15 16.3707 399.924 22.3505C399.689 28.4918 404.319 34.382 411.17 33.7634V33.7589Z" stroke="white" stroke-width="2" mask="url(#path-1-inside-1_4006_964)"/>
<path d="M346.26 22.7091C346.26 17.832 346.278 12.9549 346.242 8.07775C346.237 7.20811 346.468 6.81364 347.395 6.85847C348.557 6.91674 349.724 6.89433 350.89 6.88088C351.587 6.87192 351.836 7.22156 351.827 7.87155C351.808 8.90256 351.827 9.93357 351.827 10.9646C351.827 19.6878 351.827 28.4111 351.827 37.1343C351.827 38.4836 351.799 38.5105 350.447 38.5105C349.407 38.5105 348.363 38.4657 347.327 38.524C346.486 38.5688 346.242 38.2416 346.246 37.4347C346.273 32.5262 346.26 27.6177 346.26 22.7091Z" stroke="white" stroke-width="2" mask="url(#path-1-inside-1_4006_964)"/>
<path d="M365.253 46.0234V54.2312H361.861V40.8953C363.01 40.8953 364.167 40.8639 365.316 40.9222C365.556 40.9356 365.854 41.227 365.99 41.4691C367.541 44.1407 369.101 46.8034 370.571 49.5199C371 50.3133 371.145 51.2547 371.457 52.2409C372.506 48.2199 375.088 45.109 376.906 41.6035C377.196 41.0477 377.571 40.8549 378.182 40.8818C379.149 40.9222 380.122 40.8908 381.144 40.8908V54.2222H377.806V46.1534C377.612 46.2072 377.508 46.2207 377.503 46.2431C377.349 48.4979 375.952 50.1968 374.849 52.0212C373.37 54.4598 373.37 54.4464 370.498 54.3298C369.874 54.3029 369.445 54.1191 369.115 53.5543C368.486 52.4785 367.699 51.4878 367.134 50.3806C366.442 49.0223 365.913 47.5789 365.248 46.0234H365.253Z" stroke="white" stroke-width="2" mask="url(#path-1-inside-1_4006_964)"/>
<path d="M464.039 54.2805C462.714 54.2805 461.389 54.3343 460.068 54.267C458.657 54.1953 457.531 53.4781 456.781 52.3305C454.89 49.4258 454.863 45.5214 456.948 42.6749C457.825 41.478 459.105 40.8953 460.615 40.8908C462.7 40.8818 464.78 40.8908 466.865 40.8908C469.809 40.8908 471.464 42.128 472.287 44.9476C473.033 47.4938 472.812 49.9368 471.405 52.214C470.555 53.5947 469.262 54.2715 467.629 54.285C466.431 54.2939 465.233 54.285 464.034 54.285L464.039 54.2805ZM464.102 43.9525C463.315 43.9525 462.524 43.9435 461.737 43.9525C460.502 43.9614 459.526 44.5576 459.277 45.7097C459.064 46.6958 458.924 47.7717 459.091 48.7534C459.385 50.4792 460.091 51.313 462.09 51.2682C463.605 51.2323 465.115 51.2592 466.63 51.2368C467.598 51.2188 468.33 50.7751 468.706 49.8785C469.325 48.4082 469.334 46.911 468.751 45.4272C468.366 44.45 467.607 43.9794 466.562 43.9614C465.744 43.948 464.921 43.9614 464.102 43.9614V43.9525Z" stroke="white" stroke-width="2" mask="url(#path-1-inside-1_4006_964)"/>
<path d="M395.384 54.2446V44.71H397.979C398.02 45.109 398.061 45.5259 398.129 46.2341C398.997 44.5307 400.39 44.6338 401.774 44.6383C405.052 44.6562 408.335 44.6428 411.614 44.6428C414.191 44.6428 415.557 45.759 415.76 48.323C415.914 50.2461 415.792 52.1871 415.792 54.1998H413.183C413.156 53.8502 413.124 53.4915 413.083 53.0029C411.238 55.1546 408.824 54.1864 406.635 54.2402C405.509 54.267 404.962 53.3481 404.713 52.2723C404.333 50.6182 405.228 48.592 407.408 48.7489C409.099 48.8699 410.804 48.7713 412.491 48.7713C412.69 47.8434 412.278 47.5206 411.496 47.5206C407.679 47.5206 403.863 47.5206 400.046 47.5206C399.309 47.5206 398.802 47.8568 398.757 48.5965C398.671 50.0578 398.653 51.5237 398.613 52.9895C398.599 53.4109 398.613 53.8322 398.613 54.2446H395.384ZM412.518 50.3402C411.198 50.3402 409.94 50.3089 408.683 50.3671C408.412 50.3806 408.159 50.7213 407.901 50.9095C408.141 51.1023 408.371 51.4475 408.62 51.4609C409.624 51.5192 410.632 51.4923 411.636 51.4609C412.274 51.443 412.618 51.1113 412.518 50.3402Z" stroke="white" stroke-width="2" mask="url(#path-1-inside-1_4006_964)"/>
<path d="M430.43 40.5232H433.623V46.01C435.201 44.2035 437.069 44.4545 438.873 44.8669C440.352 45.2031 441.256 46.3103 441.387 47.8031C441.55 49.6992 441.532 51.6088 441.6 53.514C441.618 54.0608 441.387 54.3253 440.822 54.3164C440.035 54.3029 439.253 54.3164 438.321 54.3164C438.321 52.7743 438.335 51.2861 438.312 49.7934C438.303 49.3361 438.258 48.8565 438.109 48.4217C437.729 47.2965 437.024 47.4938 434.948 47.5565C434.066 47.5834 433.65 48.2244 433.65 49.0941C433.65 50.4389 433.65 51.7837 433.65 53.1285C433.65 53.4691 433.65 53.8053 433.65 54.285H430.439V40.5232H430.43Z" stroke="white" stroke-width="2" mask="url(#path-1-inside-1_4006_964)"/>
<path d="M390.355 48.7758C390.464 47.8524 390.057 47.5117 389.225 47.5206C387.271 47.5341 385.313 47.5206 383.278 47.5206V44.6607C385.661 44.6607 388.026 44.5352 390.373 44.7011C392.232 44.8311 393.426 46.2117 393.611 48.3813C393.774 50.2999 393.647 52.2409 393.647 54.2312H390.997C390.966 53.8277 390.939 53.4333 390.902 52.9716C389.017 55.177 386.529 54.2805 384.255 54.2267C383.065 54.1998 382.319 52.7116 382.45 51.1471C382.564 49.7754 383.5 48.7937 384.766 48.7803C386.624 48.7623 388.483 48.7758 390.351 48.7758H390.355ZM390.369 50.3402C389.053 50.3402 387.796 50.3089 386.538 50.3627C386.263 50.3761 386.005 50.6944 385.738 50.8692C385.996 51.0754 386.24 51.4385 386.511 51.4564C387.447 51.5281 388.397 51.4833 389.338 51.4744C390.016 51.4699 390.382 51.1426 390.369 50.3313V50.3402Z" stroke="white" stroke-width="2" mask="url(#path-1-inside-1_4006_964)"/>
<path d="M425.438 54.2581C425.438 53.6126 425.456 52.9716 425.438 52.3305C425.393 51.0575 425.492 49.7485 425.221 48.5248C424.85 46.8258 423.326 47.7044 422.29 47.5431C421.535 47.4265 421.006 47.821 420.952 48.6323C420.87 49.874 420.816 51.1157 420.766 52.3574C420.744 52.9492 420.766 53.5409 420.766 54.2088H417.542V44.7145H420.133C420.201 45.0373 420.264 45.3376 420.332 45.6559C422.444 44.3649 424.61 44.2214 426.822 45.2121C427.957 45.7186 428.481 46.6869 428.535 47.9062C428.63 49.9906 428.721 52.075 428.816 54.2581H425.438Z" stroke="white" stroke-width="2" mask="url(#path-1-inside-1_4006_964)"/>
<path d="M450.83 48.7758C450.789 48.332 450.757 47.9779 450.716 47.57C451.675 47.2876 452.625 47.0051 453.62 46.7093C454.488 49.1972 453.963 51.6985 454.117 54.2267H451.472C451.413 53.8546 451.354 53.4736 451.259 52.855C450.49 54.2671 449.328 54.3657 448.103 54.3388C447.063 54.3164 446.023 54.3433 444.982 54.2939C443.911 54.2446 443.178 53.5409 443.07 52.483C443.011 51.9316 443.006 51.3668 443.061 50.8154C443.196 49.4661 443.983 48.7892 445.371 48.7848C447.162 48.7758 448.957 48.7848 450.834 48.7848L450.83 48.7758ZM450.775 50.3402C449.491 50.3402 448.207 50.3133 446.922 50.3627C446.66 50.3716 446.411 50.654 446.154 50.8109C446.389 51.0395 446.61 51.4475 446.864 51.4609C447.868 51.5281 448.881 51.4968 449.884 51.4609C450.522 51.4385 450.866 51.1068 450.775 50.3402Z" stroke="white" stroke-width="2" mask="url(#path-1-inside-1_4006_964)"/>
<path d="M451.16 44.7324C450.988 45.5483 450.861 46.3103 450.644 47.05C450.585 47.2472 450.264 47.4982 450.061 47.5027C447.958 47.5341 445.855 47.5251 443.689 47.5251V44.7369H451.16V44.7324Z" stroke="white" stroke-width="2" mask="url(#path-1-inside-1_4006_964)"/>
<path d="M310.865 0V61" stroke="white" stroke-width="3" stroke-miterlimit="10"/>
<mask id="path-3-inside-2_4006_964" fill="white">
<path d="M75.4879 50.8835L69.469 44.8023V25.7639H62.9254V17.6313H69.469V8.77227H79.8744V17.6313H91.0621V25.7639H79.8744V41.4305L80.7245 42.2894H91.5867V50.8835H75.4879Z"/>
<path d="M97.5378 50.8835V17.6313H105.85V20.2767H107.093L110.168 17.6313H122.206V26.2253H111.018L107.943 28.7382V50.8835H97.5378Z"/>
<path d="M126.131 12.4091V4.60547H136.794V12.4045H126.131V12.4091ZM126.262 50.8835V17.6313H136.668V50.8835H126.262Z"/>
<path d="M146.806 50.8835V12.6741H140.263V4.60547H157.212V50.8789H146.806V50.8835Z"/>
<path d="M166.5 50.8835V4.60547H176.906V19.6096H177.561L179.981 17.6267H193.85L201.113 24.9643V50.8789H190.707V28.4686L188.482 26.2208H180.239L176.901 28.9301V50.8789H166.496L166.5 50.8835Z"/>
<path d="M213.806 50.8835L207.787 44.8023V36.3408L214.005 30.0586H232.193V27.9432L230.294 25.9603H212.237V17.6313H235.856L242.594 24.4389V50.8835H234.283V48.1741H233.233L230.027 50.8835H213.802H213.806ZM229.182 42.9519L232.193 40.5076V36.8068H219.825L218.188 38.4607V41.764L219.364 42.9519H229.182Z"/>
<path d="M250.449 50.8835V42.9519H271.454L272.63 41.764V39.4522L271.454 38.1957H255.948L249.929 32.1786V23.6485L255.948 17.6313H281.204V25.5628H261.51L260.335 26.7507V29.0626L261.51 30.2505H277.017L283.036 36.3316V44.7932L277.017 50.8743H250.454L250.449 50.8835Z"/>
<path d="M39.8535 7.11834H7.46152L0 15.2463L0.393425 47.7766L7.65597 54.7213H38.8722L47.1206 47.7766L47.514 14.8489L39.8581 7.11377L39.8535 7.11834ZM41.2464 44.8937L39.6817 46.2095H35.0103L33.5994 44.8663L33.5904 44.117H16.0717L12.0198 40.0233V33.3253L16.0717 29.2316H28.598L30.8093 26.9975V23.4612L28.598 21.227H13.9191L13.9101 22.0996L12.3454 23.42H7.67406L6.26315 22.0722L6.20436 17.1744L7.61527 15.6347H12.5127L13.9643 17.1059L13.9553 18.0653H30.2576L34.3094 22.159V28.2996L30.2576 32.3933H17.7313L15.52 34.6275V38.7212L17.7313 40.9553H33.5542L33.5452 39.9685L34.9561 38.4288H39.849L41.3051 39.8954L41.2464 44.8937Z"/>
</mask>
<path d="M75.4879 50.8835L69.469 44.8023V25.7639H62.9254V17.6313H69.469V8.77227H79.8744V17.6313H91.0621V25.7639H79.8744V41.4305L80.7245 42.2894H91.5867V50.8835H75.4879Z" fill="white"/>
<path d="M97.5378 50.8835V17.6313H105.85V20.2767H107.093L110.168 17.6313H122.206V26.2253H111.018L107.943 28.7382V50.8835H97.5378Z" fill="white"/>
<path d="M126.131 12.4091V4.60547H136.794V12.4045H126.131V12.4091ZM126.262 50.8835V17.6313H136.668V50.8835H126.262Z" fill="white"/>
<path d="M146.806 50.8835V12.6741H140.263V4.60547H157.212V50.8789H146.806V50.8835Z" fill="white"/>
<path d="M166.5 50.8835V4.60547H176.906V19.6096H177.561L179.981 17.6267H193.85L201.113 24.9643V50.8789H190.707V28.4686L188.482 26.2208H180.239L176.901 28.9301V50.8789H166.496L166.5 50.8835Z" fill="white"/>
<path d="M213.806 50.8835L207.787 44.8023V36.3408L214.005 30.0586H232.193V27.9432L230.294 25.9603H212.237V17.6313H235.856L242.594 24.4389V50.8835H234.283V48.1741H233.233L230.027 50.8835H213.802H213.806ZM229.182 42.9519L232.193 40.5076V36.8068H219.825L218.188 38.4607V41.764L219.364 42.9519H229.182Z" fill="white"/>
<path d="M250.449 50.8835V42.9519H271.454L272.63 41.764V39.4522L271.454 38.1957H255.948L249.929 32.1786V23.6485L255.948 17.6313H281.204V25.5628H261.51L260.335 26.7507V29.0626L261.51 30.2505H277.017L283.036 36.3316V44.7932L277.017 50.8743H250.454L250.449 50.8835Z" fill="white"/>
<path d="M39.8535 7.11834H7.46152L0 15.2463L0.393425 47.7766L7.65597 54.7213H38.8722L47.1206 47.7766L47.514 14.8489L39.8581 7.11377L39.8535 7.11834ZM41.2464 44.8937L39.6817 46.2095H35.0103L33.5994 44.8663L33.5904 44.117H16.0717L12.0198 40.0233V33.3253L16.0717 29.2316H28.598L30.8093 26.9975V23.4612L28.598 21.227H13.9191L13.9101 22.0996L12.3454 23.42H7.67406L6.26315 22.0722L6.20436 17.1744L7.61527 15.6347H12.5127L13.9643 17.1059L13.9553 18.0653H30.2576L34.3094 22.159V28.2996L30.2576 32.3933H17.7313L15.52 34.6275V38.7212L17.7313 40.9553H33.5542L33.5452 39.9685L34.9561 38.4288H39.849L41.3051 39.8954L41.2464 44.8937Z" fill="white"/>
<path d="M75.4879 50.8835L69.469 44.8023V25.7639H62.9254V17.6313H69.469V8.77227H79.8744V17.6313H91.0621V25.7639H79.8744V41.4305L80.7245 42.2894H91.5867V50.8835H75.4879Z" stroke="white" stroke-width="2" mask="url(#path-3-inside-2_4006_964)"/>
<path d="M97.5378 50.8835V17.6313H105.85V20.2767H107.093L110.168 17.6313H122.206V26.2253H111.018L107.943 28.7382V50.8835H97.5378Z" stroke="white" stroke-width="2" mask="url(#path-3-inside-2_4006_964)"/>
<path d="M126.131 12.4091V4.60547H136.794V12.4045H126.131V12.4091ZM126.262 50.8835V17.6313H136.668V50.8835H126.262Z" stroke="white" stroke-width="2" mask="url(#path-3-inside-2_4006_964)"/>
<path d="M146.806 50.8835V12.6741H140.263V4.60547H157.212V50.8789H146.806V50.8835Z" stroke="white" stroke-width="2" mask="url(#path-3-inside-2_4006_964)"/>
<path d="M166.5 50.8835V4.60547H176.906V19.6096H177.561L179.981 17.6267H193.85L201.113 24.9643V50.8789H190.707V28.4686L188.482 26.2208H180.239L176.901 28.9301V50.8789H166.496L166.5 50.8835Z" stroke="white" stroke-width="2" mask="url(#path-3-inside-2_4006_964)"/>
<path d="M213.806 50.8835L207.787 44.8023V36.3408L214.005 30.0586H232.193V27.9432L230.294 25.9603H212.237V17.6313H235.856L242.594 24.4389V50.8835H234.283V48.1741H233.233L230.027 50.8835H213.802H213.806ZM229.182 42.9519L232.193 40.5076V36.8068H219.825L218.188 38.4607V41.764L219.364 42.9519H229.182Z" stroke="white" stroke-width="2" mask="url(#path-3-inside-2_4006_964)"/>
<path d="M250.449 50.8835V42.9519H271.454L272.63 41.764V39.4522L271.454 38.1957H255.948L249.929 32.1786V23.6485L255.948 17.6313H281.204V25.5628H261.51L260.335 26.7507V29.0626L261.51 30.2505H277.017L283.036 36.3316V44.7932L277.017 50.8743H250.454L250.449 50.8835Z" stroke="white" stroke-width="2" mask="url(#path-3-inside-2_4006_964)"/>
<path d="M39.8535 7.11834H7.46152L0 15.2463L0.393425 47.7766L7.65597 54.7213H38.8722L47.1206 47.7766L47.514 14.8489L39.8581 7.11377L39.8535 7.11834ZM41.2464 44.8937L39.6817 46.2095H35.0103L33.5994 44.8663L33.5904 44.117H16.0717L12.0198 40.0233V33.3253L16.0717 29.2316H28.598L30.8093 26.9975V23.4612L28.598 21.227H13.9191L13.9101 22.0996L12.3454 23.42H7.67406L6.26315 22.0722L6.20436 17.1744L7.61527 15.6347H12.5127L13.9643 17.1059L13.9553 18.0653H30.2576L34.3094 22.159V28.2996L30.2576 32.3933H17.7313L15.52 34.6275V38.7212L17.7313 40.9553H33.5542L33.5452 39.9685L34.9561 38.4288H39.849L41.3051 39.8954L41.2464 44.8937Z" stroke="white" stroke-width="2" mask="url(#path-3-inside-2_4006_964)"/>
</svg>
