<svg width="284" height="51" viewBox="0 0 284 51" fill="none" xmlns="http://www.w3.org/2000/svg">
<mask id="path-1-inside-1_4006_968" fill="white">
<path d="M75.4879 46.8835L69.469 40.8023V21.7639H62.9254V13.6313H69.469V4.77227H79.8744V13.6313H91.0621V21.7639H79.8744V37.4305L80.7245 38.2894H91.5867V46.8835H75.4879Z"/>
<path d="M97.5378 46.8835V13.6313H105.85V16.2767H107.093L110.168 13.6313H122.206V22.2253H111.018L107.943 24.7382V46.8835H97.5378Z"/>
<path d="M126.131 8.40908V0.605469H136.794V8.40452H126.131V8.40908ZM126.262 46.8835V13.6313H136.668V46.8835H126.262Z"/>
<path d="M146.806 46.8835V8.67408H140.263V0.605469H157.212V46.8789H146.806V46.8835Z"/>
<path d="M166.5 46.8835V0.605469H176.906V15.6096H177.561L179.981 13.6267H193.85L201.113 20.9643V46.8789H190.707V24.4686L188.482 22.2208H180.239L176.901 24.9301V46.8789H166.496L166.5 46.8835Z"/>
<path d="M213.806 46.8835L207.787 40.8023V32.3408L214.005 26.0586H232.193V23.9432L230.294 21.9603H212.237V13.6313H235.856L242.594 20.4389V46.8835H234.283V44.1741H233.233L230.027 46.8835H213.802H213.806ZM229.182 38.9519L232.193 36.5076V32.8068H219.825L218.188 34.4607V37.764L219.364 38.9519H229.182Z"/>
<path d="M250.449 46.8835V38.9519H271.454L272.63 37.764V35.4522L271.454 34.1957H255.948L249.929 28.1786V19.6485L255.948 13.6313H281.204V21.5628H261.51L260.335 22.7507V25.0626L261.51 26.2505H277.017L283.036 32.3316V40.7932L277.017 46.8743H250.454L250.449 46.8835Z"/>
<path d="M39.8535 3.11834H7.46152L0 11.2463L0.393425 43.7766L7.65597 50.7213H38.8722L47.1206 43.7766L47.514 10.8489L39.8581 3.11377L39.8535 3.11834ZM41.2464 40.8937L39.6817 42.2095H35.0103L33.5994 40.8663L33.5904 40.117H16.0717L12.0198 36.0233V29.3253L16.0717 25.2316H28.598L30.8093 22.9975V19.4612L28.598 17.227H13.9191L13.9101 18.0996L12.3454 19.42H7.67406L6.26315 18.0722L6.20436 13.1744L7.61527 11.6347H12.5127L13.9643 13.1059L13.9553 14.0653H30.2576L34.3094 18.159V24.2996L30.2576 28.3933H17.7313L15.52 30.6275V34.7212L17.7313 36.9553H33.5542L33.5452 35.9685L34.9561 34.4288H39.849L41.3051 35.8954L41.2464 40.8937Z"/>
</mask>
<path d="M75.4879 46.8835L69.469 40.8023V21.7639H62.9254V13.6313H69.469V4.77227H79.8744V13.6313H91.0621V21.7639H79.8744V37.4305L80.7245 38.2894H91.5867V46.8835H75.4879Z" fill="white"/>
<path d="M97.5378 46.8835V13.6313H105.85V16.2767H107.093L110.168 13.6313H122.206V22.2253H111.018L107.943 24.7382V46.8835H97.5378Z" fill="white"/>
<path d="M126.131 8.40908V0.605469H136.794V8.40452H126.131V8.40908ZM126.262 46.8835V13.6313H136.668V46.8835H126.262Z" fill="white"/>
<path d="M146.806 46.8835V8.67408H140.263V0.605469H157.212V46.8789H146.806V46.8835Z" fill="white"/>
<path d="M166.5 46.8835V0.605469H176.906V15.6096H177.561L179.981 13.6267H193.85L201.113 20.9643V46.8789H190.707V24.4686L188.482 22.2208H180.239L176.901 24.9301V46.8789H166.496L166.5 46.8835Z" fill="white"/>
<path d="M213.806 46.8835L207.787 40.8023V32.3408L214.005 26.0586H232.193V23.9432L230.294 21.9603H212.237V13.6313H235.856L242.594 20.4389V46.8835H234.283V44.1741H233.233L230.027 46.8835H213.802H213.806ZM229.182 38.9519L232.193 36.5076V32.8068H219.825L218.188 34.4607V37.764L219.364 38.9519H229.182Z" fill="white"/>
<path d="M250.449 46.8835V38.9519H271.454L272.63 37.764V35.4522L271.454 34.1957H255.948L249.929 28.1786V19.6485L255.948 13.6313H281.204V21.5628H261.51L260.335 22.7507V25.0626L261.51 26.2505H277.017L283.036 32.3316V40.7932L277.017 46.8743H250.454L250.449 46.8835Z" fill="white"/>
<path d="M39.8535 3.11834H7.46152L0 11.2463L0.393425 43.7766L7.65597 50.7213H38.8722L47.1206 43.7766L47.514 10.8489L39.8581 3.11377L39.8535 3.11834ZM41.2464 40.8937L39.6817 42.2095H35.0103L33.5994 40.8663L33.5904 40.117H16.0717L12.0198 36.0233V29.3253L16.0717 25.2316H28.598L30.8093 22.9975V19.4612L28.598 17.227H13.9191L13.9101 18.0996L12.3454 19.42H7.67406L6.26315 18.0722L6.20436 13.1744L7.61527 11.6347H12.5127L13.9643 13.1059L13.9553 14.0653H30.2576L34.3094 18.159V24.2996L30.2576 28.3933H17.7313L15.52 30.6275V34.7212L17.7313 36.9553H33.5542L33.5452 35.9685L34.9561 34.4288H39.849L41.3051 35.8954L41.2464 40.8937Z" fill="white"/>
<path d="M75.4879 46.8835L69.469 40.8023V21.7639H62.9254V13.6313H69.469V4.77227H79.8744V13.6313H91.0621V21.7639H79.8744V37.4305L80.7245 38.2894H91.5867V46.8835H75.4879Z" stroke="white" stroke-width="2" mask="url(#path-1-inside-1_4006_968)"/>
<path d="M97.5378 46.8835V13.6313H105.85V16.2767H107.093L110.168 13.6313H122.206V22.2253H111.018L107.943 24.7382V46.8835H97.5378Z" stroke="white" stroke-width="2" mask="url(#path-1-inside-1_4006_968)"/>
<path d="M126.131 8.40908V0.605469H136.794V8.40452H126.131V8.40908ZM126.262 46.8835V13.6313H136.668V46.8835H126.262Z" stroke="white" stroke-width="2" mask="url(#path-1-inside-1_4006_968)"/>
<path d="M146.806 46.8835V8.67408H140.263V0.605469H157.212V46.8789H146.806V46.8835Z" stroke="white" stroke-width="2" mask="url(#path-1-inside-1_4006_968)"/>
<path d="M166.5 46.8835V0.605469H176.906V15.6096H177.561L179.981 13.6267H193.85L201.113 20.9643V46.8789H190.707V24.4686L188.482 22.2208H180.239L176.901 24.9301V46.8789H166.496L166.5 46.8835Z" stroke="white" stroke-width="2" mask="url(#path-1-inside-1_4006_968)"/>
<path d="M213.806 46.8835L207.787 40.8023V32.3408L214.005 26.0586H232.193V23.9432L230.294 21.9603H212.237V13.6313H235.856L242.594 20.4389V46.8835H234.283V44.1741H233.233L230.027 46.8835H213.802H213.806ZM229.182 38.9519L232.193 36.5076V32.8068H219.825L218.188 34.4607V37.764L219.364 38.9519H229.182Z" stroke="white" stroke-width="2" mask="url(#path-1-inside-1_4006_968)"/>
<path d="M250.449 46.8835V38.9519H271.454L272.63 37.764V35.4522L271.454 34.1957H255.948L249.929 28.1786V19.6485L255.948 13.6313H281.204V21.5628H261.51L260.335 22.7507V25.0626L261.51 26.2505H277.017L283.036 32.3316V40.7932L277.017 46.8743H250.454L250.449 46.8835Z" stroke="white" stroke-width="2" mask="url(#path-1-inside-1_4006_968)"/>
<path d="M39.8535 3.11834H7.46152L0 11.2463L0.393425 43.7766L7.65597 50.7213H38.8722L47.1206 43.7766L47.514 10.8489L39.8581 3.11377L39.8535 3.11834ZM41.2464 40.8937L39.6817 42.2095H35.0103L33.5994 40.8663L33.5904 40.117H16.0717L12.0198 36.0233V29.3253L16.0717 25.2316H28.598L30.8093 22.9975V19.4612L28.598 17.227H13.9191L13.9101 18.0996L12.3454 19.42H7.67406L6.26315 18.0722L6.20436 13.1744L7.61527 11.6347H12.5127L13.9643 13.1059L13.9553 14.0653H30.2576L34.3094 18.159V24.2996L30.2576 28.3933H17.7313L15.52 30.6275V34.7212L17.7313 36.9553H33.5542L33.5452 35.9685L34.9561 34.4288H39.849L41.3051 35.8954L41.2464 40.8937Z" stroke="white" stroke-width="2" mask="url(#path-1-inside-1_4006_968)"/>
</svg>
