<svg width="489" height="61" viewBox="0 0 489 61" fill="none" xmlns="http://www.w3.org/2000/svg">
<mask id="path-1-inside-1_4019_1434" fill="white">
<path d="M485.519 38.5104C484.917 38.5104 484.311 38.4476 483.724 38.5238C482.661 38.6583 482.127 38.2056 481.761 37.2328C479.943 32.3736 478.066 27.5368 476.217 22.6911C475.385 20.5125 474.58 18.325 473.725 16.1554C472.599 13.3089 470.017 11.9551 467.34 12.8068C465.658 13.3403 464.645 14.5864 463.98 16.1374C461.755 21.3418 459.548 26.5596 457.323 31.764C455.935 35.0139 453.728 37.4301 450.129 38.1876C445.019 39.2635 439.999 37.7035 437.77 32.1988C434.5 24.13 431.339 16.0209 428.124 7.9297C427.816 7.15868 428.002 6.84041 428.87 6.86283C430.349 6.89869 431.832 6.90765 433.315 6.86283C434.156 6.84041 434.545 7.23937 434.821 7.96556C436.372 12.0627 437.951 16.1464 439.52 20.2391C440.655 23.2021 441.808 26.1562 442.911 29.1282C443.766 31.4323 445.371 32.7905 447.84 32.9609C449.125 33.0505 450.45 32.6829 451.133 31.5219C452.444 29.2985 453.706 27.0348 454.764 24.6904C456.365 21.1491 457.78 17.5226 459.272 13.932C460.842 10.1441 463.564 7.64729 467.684 6.97938C471.681 6.33387 475.832 7.74591 477.976 11.6503C479.495 14.4161 480.594 17.415 481.779 20.3511C484.045 25.9724 486.242 31.625 488.458 37.2687C488.938 38.4835 488.915 38.5059 487.599 38.5104C487.504 38.5104 487.409 38.5104 487.314 38.5104C486.713 38.5104 486.116 38.5104 485.514 38.5104H485.519Z"/>
<path d="M390.844 20.3153C390.844 24.2914 390.857 28.263 390.844 32.2391C390.83 35.0094 388.985 37.6901 386.389 38.3221C382.808 39.1917 379.339 38.9945 376.603 36.1122C375.844 35.3098 375.242 34.3146 374.754 33.315C371.656 27.0213 368.613 20.7053 365.551 14.3937C365.443 14.1696 365.316 13.9499 365.199 13.7347C364.828 13.0713 364.222 12.8203 363.521 13.0041C362.811 13.1923 362.341 13.6944 362.255 14.4609C362.232 14.6761 362.255 14.9002 362.255 15.1199C362.255 22.5028 362.255 29.8902 362.255 37.2732C362.255 38.5462 362.114 38.6897 360.857 38.6942C359.786 38.6942 358.709 38.6807 357.637 38.6987C356.973 38.7076 356.643 38.3983 356.606 37.7618C356.593 37.5421 356.588 37.3225 356.588 37.1073C356.588 29.5047 356.588 21.9021 356.588 14.2951C356.588 12.0537 357.199 10.0321 358.931 8.48555C360.803 6.81352 363.105 6.72835 365.411 6.97938C368.491 7.32006 370.526 9.1445 371.864 11.8296C375.025 18.1546 378.182 24.4841 381.374 30.7957C381.641 31.3247 382.062 31.885 382.559 32.1719C383.839 32.8981 385.123 32.154 385.286 30.6926C385.317 30.4147 385.295 30.1278 385.295 29.8499C385.295 22.6507 385.295 15.4561 385.295 8.25693C385.295 7.06903 385.453 6.91214 386.656 6.90765C387.664 6.90317 388.677 6.90317 389.686 6.90765C390.482 6.91214 390.866 7.25282 390.857 8.11349C390.825 12.1793 390.844 16.2495 390.844 20.3153Z"/>
<path d="M394.393 22.4625C394.099 18.3384 395.551 14.7478 398.215 11.601C400.272 9.16691 402.985 7.78177 406.074 7.14523C409.931 6.3518 413.811 6.25319 417.605 7.47247C423.204 9.27001 426.636 13.1341 427.74 18.8091C428.459 22.5073 428.436 26.2548 426.799 29.8185C424.655 34.4894 421.106 37.5421 415.991 38.3356C411.41 39.0483 406.739 39.1917 402.42 37.0087C397.875 34.7181 395.307 30.9571 394.556 25.9679C394.506 25.6272 394.407 25.291 394.398 24.9503C394.375 24.139 394.389 23.3231 394.389 22.4625H394.393ZM411.17 33.7588C417.447 34.4491 422.652 29.034 422.426 22.3639C422.254 17.2536 418.392 11.6638 411.003 11.7579C404.826 11.8386 400.15 16.3705 399.924 22.3504C399.689 28.4916 404.319 34.3819 411.17 33.7633V33.7588Z"/>
<path d="M346.26 22.709C346.26 17.8319 346.278 12.9548 346.242 8.07763C346.237 7.20799 346.468 6.81352 347.395 6.85835C348.557 6.91662 349.724 6.89421 350.89 6.88076C351.587 6.87179 351.836 7.22144 351.827 7.87143C351.808 8.90244 351.827 9.93345 351.827 10.9645C351.827 19.6877 351.827 28.411 351.827 37.1342C351.827 38.4835 351.799 38.5104 350.447 38.5104C349.407 38.5104 348.363 38.4656 347.327 38.5238C346.486 38.5687 346.242 38.2414 346.246 37.4346C346.273 32.526 346.26 27.6175 346.26 22.709Z"/>
<path d="M365.253 46.0233V54.2311H361.861V40.8952C363.01 40.8952 364.167 40.8638 365.316 40.9221C365.556 40.9355 365.854 41.2269 365.99 41.4689C367.541 44.1406 369.101 46.8033 370.571 49.5198C371 50.3132 371.145 51.2546 371.457 52.2408C372.506 48.2198 375.088 45.1089 376.906 41.6034C377.196 41.0476 377.571 40.8548 378.182 40.8817C379.149 40.9221 380.122 40.8907 381.144 40.8907V54.2221H377.806V46.1533C377.612 46.2071 377.508 46.2206 377.503 46.243C377.349 48.4977 375.952 50.1967 374.849 52.0211C373.37 54.4597 373.37 54.4462 370.498 54.3297C369.874 54.3028 369.445 54.119 369.115 53.5542C368.486 52.4783 367.699 51.4877 367.134 50.3805C366.442 49.0222 365.913 47.5788 365.248 46.0233H365.253Z"/>
<path d="M464.039 54.2804C462.714 54.2804 461.389 54.3342 460.068 54.2669C458.657 54.1952 457.531 53.478 456.781 52.3304C454.89 49.4257 454.863 45.5213 456.948 42.6748C457.825 41.4779 459.105 40.8952 460.615 40.8907C462.7 40.8817 464.78 40.8907 466.865 40.8907C469.809 40.8907 471.464 42.1279 472.287 44.9475C473.033 47.4936 472.812 49.9367 471.405 52.2139C470.555 53.5945 469.262 54.2714 467.629 54.2849C466.431 54.2938 465.233 54.2849 464.034 54.2849L464.039 54.2804ZM464.102 43.9523C463.315 43.9523 462.524 43.9434 461.737 43.9523C460.502 43.9613 459.526 44.5575 459.277 45.7095C459.064 46.6957 458.924 47.7716 459.091 48.7533C459.385 50.4791 460.091 51.3129 462.09 51.268C463.605 51.2322 465.115 51.2591 466.63 51.2367C467.598 51.2187 468.33 50.7749 468.706 49.8784C469.325 48.4081 469.334 46.9109 468.751 45.4271C468.366 44.4499 467.607 43.9792 466.562 43.9613C465.744 43.9479 464.921 43.9613 464.102 43.9613V43.9523Z"/>
<path d="M395.384 54.2445V44.7099H397.979C398.02 45.1089 398.061 45.5257 398.129 46.234C398.997 44.5306 400.39 44.6337 401.774 44.6382C405.052 44.6561 408.335 44.6427 411.614 44.6427C414.191 44.6427 415.557 45.7588 415.76 48.3229C415.914 50.246 415.792 52.187 415.792 54.1997H413.183C413.156 53.85 413.124 53.4914 413.083 53.0028C411.238 55.1545 408.824 54.1862 406.635 54.24C405.509 54.2669 404.962 53.348 404.713 52.2721C404.333 50.618 405.228 48.5919 407.408 48.7488C409.099 48.8698 410.804 48.7712 412.491 48.7712C412.69 47.8433 412.278 47.5205 411.496 47.5205C407.679 47.5205 403.863 47.5205 400.046 47.5205C399.309 47.5205 398.802 47.8567 398.757 48.5964C398.671 50.0577 398.653 51.5235 398.613 52.9894C398.599 53.4107 398.613 53.8321 398.613 54.2445H395.384ZM412.518 50.3401C411.198 50.3401 409.94 50.3087 408.683 50.367C408.412 50.3805 408.159 50.7211 407.901 50.9094C408.141 51.1022 408.371 51.4473 408.62 51.4608C409.624 51.5191 410.632 51.4922 411.636 51.4608C412.274 51.4429 412.618 51.1111 412.518 50.3401Z"/>
<path d="M430.43 40.5231H433.623V46.0099C435.201 44.2034 437.069 44.4544 438.873 44.8668C440.352 45.203 441.256 46.3102 441.387 47.8029C441.55 49.6991 441.532 51.6087 441.6 53.5138C441.618 54.0607 441.387 54.3252 440.822 54.3162C440.035 54.3028 439.253 54.3162 438.321 54.3162C438.321 52.7742 438.335 51.286 438.312 49.7932C438.303 49.336 438.258 48.8564 438.109 48.4215C437.729 47.2964 437.024 47.4936 434.948 47.5564C434.066 47.5833 433.65 48.2243 433.65 49.0939C433.65 50.4387 433.65 51.7835 433.65 53.1283C433.65 53.469 433.65 53.8052 433.65 54.2849H430.439V40.5231H430.43Z"/>
<path d="M390.355 48.7757C390.464 47.8522 390.057 47.5116 389.225 47.5205C387.271 47.534 385.313 47.5205 383.278 47.5205V44.6606C385.661 44.6606 388.026 44.5351 390.373 44.7009C392.232 44.8309 393.426 46.2116 393.611 48.3812C393.774 50.2998 393.647 52.2408 393.647 54.2311H390.997C390.966 53.8276 390.939 53.4332 390.902 52.9714C389.017 55.1769 386.529 54.2804 384.255 54.2266C383.065 54.1997 382.319 52.7114 382.45 51.147C382.564 49.7753 383.5 48.7936 384.766 48.7802C386.624 48.7622 388.483 48.7757 390.351 48.7757H390.355ZM390.369 50.3401C389.053 50.3401 387.796 50.3087 386.538 50.3625C386.263 50.376 386.005 50.6942 385.738 50.8691C385.996 51.0753 386.24 51.4384 386.511 51.4563C387.447 51.528 388.397 51.4832 389.338 51.4742C390.016 51.4697 390.382 51.1425 390.369 50.3312V50.3401Z"/>
<path d="M425.438 54.258C425.438 53.6125 425.456 52.9714 425.438 52.3304C425.393 51.0573 425.492 49.7484 425.221 48.5246C424.85 46.8257 423.326 47.7043 422.29 47.5429C421.535 47.4264 421.006 47.8209 420.952 48.6322C420.87 49.8739 420.816 51.1156 420.766 52.3573C420.744 52.949 420.766 53.5407 420.766 54.2087H417.542V44.7144H420.133C420.201 45.0371 420.264 45.3375 420.332 45.6557C422.444 44.3647 424.61 44.2213 426.822 45.212C427.957 45.7185 428.481 46.6868 428.535 47.906C428.63 49.9905 428.721 52.0749 428.816 54.258H425.438Z"/>
<path d="M450.83 48.7757C450.789 48.3319 450.757 47.9778 450.716 47.5698C451.675 47.2874 452.625 47.005 453.62 46.7092C454.488 49.197 453.963 51.6984 454.117 54.2266H451.472C451.413 53.8545 451.354 53.4735 451.259 52.8549C450.49 54.2669 449.328 54.3655 448.103 54.3387C447.063 54.3162 446.023 54.3431 444.982 54.2938C443.911 54.2445 443.178 53.5407 443.07 52.4828C443.011 51.9315 443.006 51.3666 443.061 50.8153C443.196 49.466 443.983 48.7891 445.371 48.7846C447.162 48.7757 448.957 48.7846 450.834 48.7846L450.83 48.7757ZM450.775 50.3401C449.491 50.3401 448.207 50.3132 446.922 50.3625C446.66 50.3715 446.411 50.6539 446.154 50.8108C446.389 51.0394 446.61 51.4473 446.864 51.4608C447.868 51.528 448.881 51.4966 449.884 51.4608C450.522 51.4384 450.866 51.1067 450.775 50.3401Z"/>
<path d="M451.16 44.7323C450.988 45.5482 450.861 46.3102 450.644 47.0499C450.585 47.2471 450.264 47.4981 450.061 47.5026C447.958 47.534 445.855 47.525 443.689 47.525V44.7368H451.16V44.7323Z"/>
</mask>
<path d="M485.519 38.5104C484.917 38.5104 484.311 38.4476 483.724 38.5238C482.661 38.6583 482.127 38.2056 481.761 37.2328C479.943 32.3736 478.066 27.5368 476.217 22.6911C475.385 20.5125 474.58 18.325 473.725 16.1554C472.599 13.3089 470.017 11.9551 467.34 12.8068C465.658 13.3403 464.645 14.5864 463.98 16.1374C461.755 21.3418 459.548 26.5596 457.323 31.764C455.935 35.0139 453.728 37.4301 450.129 38.1876C445.019 39.2635 439.999 37.7035 437.77 32.1988C434.5 24.13 431.339 16.0209 428.124 7.9297C427.816 7.15868 428.002 6.84041 428.87 6.86283C430.349 6.89869 431.832 6.90765 433.315 6.86283C434.156 6.84041 434.545 7.23937 434.821 7.96556C436.372 12.0627 437.951 16.1464 439.52 20.2391C440.655 23.2021 441.808 26.1562 442.911 29.1282C443.766 31.4323 445.371 32.7905 447.84 32.9609C449.125 33.0505 450.45 32.6829 451.133 31.5219C452.444 29.2985 453.706 27.0348 454.764 24.6904C456.365 21.1491 457.78 17.5226 459.272 13.932C460.842 10.1441 463.564 7.64729 467.684 6.97938C471.681 6.33387 475.832 7.74591 477.976 11.6503C479.495 14.4161 480.594 17.415 481.779 20.3511C484.045 25.9724 486.242 31.625 488.458 37.2687C488.938 38.4835 488.915 38.5059 487.599 38.5104C487.504 38.5104 487.409 38.5104 487.314 38.5104C486.713 38.5104 486.116 38.5104 485.514 38.5104H485.519Z" fill="#131C50"/>
<path d="M390.844 20.3153C390.844 24.2914 390.857 28.263 390.844 32.2391C390.83 35.0094 388.985 37.6901 386.389 38.3221C382.808 39.1917 379.339 38.9945 376.603 36.1122C375.844 35.3098 375.242 34.3146 374.754 33.315C371.656 27.0213 368.613 20.7053 365.551 14.3937C365.443 14.1696 365.316 13.9499 365.199 13.7347C364.828 13.0713 364.222 12.8203 363.521 13.0041C362.811 13.1923 362.341 13.6944 362.255 14.4609C362.232 14.6761 362.255 14.9002 362.255 15.1199C362.255 22.5028 362.255 29.8902 362.255 37.2732C362.255 38.5462 362.114 38.6897 360.857 38.6942C359.786 38.6942 358.709 38.6807 357.637 38.6987C356.973 38.7076 356.643 38.3983 356.606 37.7618C356.593 37.5421 356.588 37.3225 356.588 37.1073C356.588 29.5047 356.588 21.9021 356.588 14.2951C356.588 12.0537 357.199 10.0321 358.931 8.48555C360.803 6.81352 363.105 6.72835 365.411 6.97938C368.491 7.32006 370.526 9.1445 371.864 11.8296C375.025 18.1546 378.182 24.4841 381.374 30.7957C381.641 31.3247 382.062 31.885 382.559 32.1719C383.839 32.8981 385.123 32.154 385.286 30.6926C385.317 30.4147 385.295 30.1278 385.295 29.8499C385.295 22.6507 385.295 15.4561 385.295 8.25693C385.295 7.06903 385.453 6.91214 386.656 6.90765C387.664 6.90317 388.677 6.90317 389.686 6.90765C390.482 6.91214 390.866 7.25282 390.857 8.11349C390.825 12.1793 390.844 16.2495 390.844 20.3153Z" fill="#131C50"/>
<path d="M394.393 22.4625C394.099 18.3384 395.551 14.7478 398.215 11.601C400.272 9.16691 402.985 7.78177 406.074 7.14523C409.931 6.3518 413.811 6.25319 417.605 7.47247C423.204 9.27001 426.636 13.1341 427.74 18.8091C428.459 22.5073 428.436 26.2548 426.799 29.8185C424.655 34.4894 421.106 37.5421 415.991 38.3356C411.41 39.0483 406.739 39.1917 402.42 37.0087C397.875 34.7181 395.307 30.9571 394.556 25.9679C394.506 25.6272 394.407 25.291 394.398 24.9503C394.375 24.139 394.389 23.3231 394.389 22.4625H394.393ZM411.17 33.7588C417.447 34.4491 422.652 29.034 422.426 22.3639C422.254 17.2536 418.392 11.6638 411.003 11.7579C404.826 11.8386 400.15 16.3705 399.924 22.3504C399.689 28.4916 404.319 34.3819 411.17 33.7633V33.7588Z" fill="#131C50"/>
<path d="M346.26 22.709C346.26 17.8319 346.278 12.9548 346.242 8.07763C346.237 7.20799 346.468 6.81352 347.395 6.85835C348.557 6.91662 349.724 6.89421 350.89 6.88076C351.587 6.87179 351.836 7.22144 351.827 7.87143C351.808 8.90244 351.827 9.93345 351.827 10.9645C351.827 19.6877 351.827 28.411 351.827 37.1342C351.827 38.4835 351.799 38.5104 350.447 38.5104C349.407 38.5104 348.363 38.4656 347.327 38.5238C346.486 38.5687 346.242 38.2414 346.246 37.4346C346.273 32.526 346.26 27.6175 346.26 22.709Z" fill="#131C50"/>
<path d="M365.253 46.0233V54.2311H361.861V40.8952C363.01 40.8952 364.167 40.8638 365.316 40.9221C365.556 40.9355 365.854 41.2269 365.99 41.4689C367.541 44.1406 369.101 46.8033 370.571 49.5198C371 50.3132 371.145 51.2546 371.457 52.2408C372.506 48.2198 375.088 45.1089 376.906 41.6034C377.196 41.0476 377.571 40.8548 378.182 40.8817C379.149 40.9221 380.122 40.8907 381.144 40.8907V54.2221H377.806V46.1533C377.612 46.2071 377.508 46.2206 377.503 46.243C377.349 48.4977 375.952 50.1967 374.849 52.0211C373.37 54.4597 373.37 54.4462 370.498 54.3297C369.874 54.3028 369.445 54.119 369.115 53.5542C368.486 52.4783 367.699 51.4877 367.134 50.3805C366.442 49.0222 365.913 47.5788 365.248 46.0233H365.253Z" fill="#131C50"/>
<path d="M464.039 54.2804C462.714 54.2804 461.389 54.3342 460.068 54.2669C458.657 54.1952 457.531 53.478 456.781 52.3304C454.89 49.4257 454.863 45.5213 456.948 42.6748C457.825 41.4779 459.105 40.8952 460.615 40.8907C462.7 40.8817 464.78 40.8907 466.865 40.8907C469.809 40.8907 471.464 42.1279 472.287 44.9475C473.033 47.4936 472.812 49.9367 471.405 52.2139C470.555 53.5945 469.262 54.2714 467.629 54.2849C466.431 54.2938 465.233 54.2849 464.034 54.2849L464.039 54.2804ZM464.102 43.9523C463.315 43.9523 462.524 43.9434 461.737 43.9523C460.502 43.9613 459.526 44.5575 459.277 45.7095C459.064 46.6957 458.924 47.7716 459.091 48.7533C459.385 50.4791 460.091 51.3129 462.09 51.268C463.605 51.2322 465.115 51.2591 466.63 51.2367C467.598 51.2187 468.33 50.7749 468.706 49.8784C469.325 48.4081 469.334 46.9109 468.751 45.4271C468.366 44.4499 467.607 43.9792 466.562 43.9613C465.744 43.9479 464.921 43.9613 464.102 43.9613V43.9523Z" fill="#131C50"/>
<path d="M395.384 54.2445V44.7099H397.979C398.02 45.1089 398.061 45.5257 398.129 46.234C398.997 44.5306 400.39 44.6337 401.774 44.6382C405.052 44.6561 408.335 44.6427 411.614 44.6427C414.191 44.6427 415.557 45.7588 415.76 48.3229C415.914 50.246 415.792 52.187 415.792 54.1997H413.183C413.156 53.85 413.124 53.4914 413.083 53.0028C411.238 55.1545 408.824 54.1862 406.635 54.24C405.509 54.2669 404.962 53.348 404.713 52.2721C404.333 50.618 405.228 48.5919 407.408 48.7488C409.099 48.8698 410.804 48.7712 412.491 48.7712C412.69 47.8433 412.278 47.5205 411.496 47.5205C407.679 47.5205 403.863 47.5205 400.046 47.5205C399.309 47.5205 398.802 47.8567 398.757 48.5964C398.671 50.0577 398.653 51.5235 398.613 52.9894C398.599 53.4107 398.613 53.8321 398.613 54.2445H395.384ZM412.518 50.3401C411.198 50.3401 409.94 50.3087 408.683 50.367C408.412 50.3805 408.159 50.7211 407.901 50.9094C408.141 51.1022 408.371 51.4473 408.62 51.4608C409.624 51.5191 410.632 51.4922 411.636 51.4608C412.274 51.4429 412.618 51.1111 412.518 50.3401Z" fill="#131C50"/>
<path d="M430.43 40.5231H433.623V46.0099C435.201 44.2034 437.069 44.4544 438.873 44.8668C440.352 45.203 441.256 46.3102 441.387 47.8029C441.55 49.6991 441.532 51.6087 441.6 53.5138C441.618 54.0607 441.387 54.3252 440.822 54.3162C440.035 54.3028 439.253 54.3162 438.321 54.3162C438.321 52.7742 438.335 51.286 438.312 49.7932C438.303 49.336 438.258 48.8564 438.109 48.4215C437.729 47.2964 437.024 47.4936 434.948 47.5564C434.066 47.5833 433.65 48.2243 433.65 49.0939C433.65 50.4387 433.65 51.7835 433.65 53.1283C433.65 53.469 433.65 53.8052 433.65 54.2849H430.439V40.5231H430.43Z" fill="#131C50"/>
<path d="M390.355 48.7757C390.464 47.8522 390.057 47.5116 389.225 47.5205C387.271 47.534 385.313 47.5205 383.278 47.5205V44.6606C385.661 44.6606 388.026 44.5351 390.373 44.7009C392.232 44.8309 393.426 46.2116 393.611 48.3812C393.774 50.2998 393.647 52.2408 393.647 54.2311H390.997C390.966 53.8276 390.939 53.4332 390.902 52.9714C389.017 55.1769 386.529 54.2804 384.255 54.2266C383.065 54.1997 382.319 52.7114 382.45 51.147C382.564 49.7753 383.5 48.7936 384.766 48.7802C386.624 48.7622 388.483 48.7757 390.351 48.7757H390.355ZM390.369 50.3401C389.053 50.3401 387.796 50.3087 386.538 50.3625C386.263 50.376 386.005 50.6942 385.738 50.8691C385.996 51.0753 386.24 51.4384 386.511 51.4563C387.447 51.528 388.397 51.4832 389.338 51.4742C390.016 51.4697 390.382 51.1425 390.369 50.3312V50.3401Z" fill="#131C50"/>
<path d="M425.438 54.258C425.438 53.6125 425.456 52.9714 425.438 52.3304C425.393 51.0573 425.492 49.7484 425.221 48.5246C424.85 46.8257 423.326 47.7043 422.29 47.5429C421.535 47.4264 421.006 47.8209 420.952 48.6322C420.87 49.8739 420.816 51.1156 420.766 52.3573C420.744 52.949 420.766 53.5407 420.766 54.2087H417.542V44.7144H420.133C420.201 45.0371 420.264 45.3375 420.332 45.6557C422.444 44.3647 424.61 44.2213 426.822 45.212C427.957 45.7185 428.481 46.6868 428.535 47.906C428.63 49.9905 428.721 52.0749 428.816 54.258H425.438Z" fill="#131C50"/>
<path d="M450.83 48.7757C450.789 48.3319 450.757 47.9778 450.716 47.5698C451.675 47.2874 452.625 47.005 453.62 46.7092C454.488 49.197 453.963 51.6984 454.117 54.2266H451.472C451.413 53.8545 451.354 53.4735 451.259 52.8549C450.49 54.2669 449.328 54.3655 448.103 54.3387C447.063 54.3162 446.023 54.3431 444.982 54.2938C443.911 54.2445 443.178 53.5407 443.07 52.4828C443.011 51.9315 443.006 51.3666 443.061 50.8153C443.196 49.466 443.983 48.7891 445.371 48.7846C447.162 48.7757 448.957 48.7846 450.834 48.7846L450.83 48.7757ZM450.775 50.3401C449.491 50.3401 448.207 50.3132 446.922 50.3625C446.66 50.3715 446.411 50.6539 446.154 50.8108C446.389 51.0394 446.61 51.4473 446.864 51.4608C447.868 51.528 448.881 51.4966 449.884 51.4608C450.522 51.4384 450.866 51.1067 450.775 50.3401Z" fill="#131C50"/>
<path d="M451.16 44.7323C450.988 45.5482 450.861 46.3102 450.644 47.0499C450.585 47.2471 450.264 47.4981 450.061 47.5026C447.958 47.534 445.855 47.525 443.689 47.525V44.7368H451.16V44.7323Z" fill="#131C50"/>
<path d="M485.519 38.5104C484.917 38.5104 484.311 38.4476 483.724 38.5238C482.661 38.6583 482.127 38.2056 481.761 37.2328C479.943 32.3736 478.066 27.5368 476.217 22.6911C475.385 20.5125 474.58 18.325 473.725 16.1554C472.599 13.3089 470.017 11.9551 467.34 12.8068C465.658 13.3403 464.645 14.5864 463.98 16.1374C461.755 21.3418 459.548 26.5596 457.323 31.764C455.935 35.0139 453.728 37.4301 450.129 38.1876C445.019 39.2635 439.999 37.7035 437.77 32.1988C434.5 24.13 431.339 16.0209 428.124 7.9297C427.816 7.15868 428.002 6.84041 428.87 6.86283C430.349 6.89869 431.832 6.90765 433.315 6.86283C434.156 6.84041 434.545 7.23937 434.821 7.96556C436.372 12.0627 437.951 16.1464 439.52 20.2391C440.655 23.2021 441.808 26.1562 442.911 29.1282C443.766 31.4323 445.371 32.7905 447.84 32.9609C449.125 33.0505 450.45 32.6829 451.133 31.5219C452.444 29.2985 453.706 27.0348 454.764 24.6904C456.365 21.1491 457.78 17.5226 459.272 13.932C460.842 10.1441 463.564 7.64729 467.684 6.97938C471.681 6.33387 475.832 7.74591 477.976 11.6503C479.495 14.4161 480.594 17.415 481.779 20.3511C484.045 25.9724 486.242 31.625 488.458 37.2687C488.938 38.4835 488.915 38.5059 487.599 38.5104C487.504 38.5104 487.409 38.5104 487.314 38.5104C486.713 38.5104 486.116 38.5104 485.514 38.5104H485.519Z" stroke="#131C50" stroke-width="2" mask="url(#path-1-inside-1_4019_1434)"/>
<path d="M390.844 20.3153C390.844 24.2914 390.857 28.263 390.844 32.2391C390.83 35.0094 388.985 37.6901 386.389 38.3221C382.808 39.1917 379.339 38.9945 376.603 36.1122C375.844 35.3098 375.242 34.3146 374.754 33.315C371.656 27.0213 368.613 20.7053 365.551 14.3937C365.443 14.1696 365.316 13.9499 365.199 13.7347C364.828 13.0713 364.222 12.8203 363.521 13.0041C362.811 13.1923 362.341 13.6944 362.255 14.4609C362.232 14.6761 362.255 14.9002 362.255 15.1199C362.255 22.5028 362.255 29.8902 362.255 37.2732C362.255 38.5462 362.114 38.6897 360.857 38.6942C359.786 38.6942 358.709 38.6807 357.637 38.6987C356.973 38.7076 356.643 38.3983 356.606 37.7618C356.593 37.5421 356.588 37.3225 356.588 37.1073C356.588 29.5047 356.588 21.9021 356.588 14.2951C356.588 12.0537 357.199 10.0321 358.931 8.48555C360.803 6.81352 363.105 6.72835 365.411 6.97938C368.491 7.32006 370.526 9.1445 371.864 11.8296C375.025 18.1546 378.182 24.4841 381.374 30.7957C381.641 31.3247 382.062 31.885 382.559 32.1719C383.839 32.8981 385.123 32.154 385.286 30.6926C385.317 30.4147 385.295 30.1278 385.295 29.8499C385.295 22.6507 385.295 15.4561 385.295 8.25693C385.295 7.06903 385.453 6.91214 386.656 6.90765C387.664 6.90317 388.677 6.90317 389.686 6.90765C390.482 6.91214 390.866 7.25282 390.857 8.11349C390.825 12.1793 390.844 16.2495 390.844 20.3153Z" stroke="#131C50" stroke-width="2" mask="url(#path-1-inside-1_4019_1434)"/>
<path d="M394.393 22.4625C394.099 18.3384 395.551 14.7478 398.215 11.601C400.272 9.16691 402.985 7.78177 406.074 7.14523C409.931 6.3518 413.811 6.25319 417.605 7.47247C423.204 9.27001 426.636 13.1341 427.74 18.8091C428.459 22.5073 428.436 26.2548 426.799 29.8185C424.655 34.4894 421.106 37.5421 415.991 38.3356C411.41 39.0483 406.739 39.1917 402.42 37.0087C397.875 34.7181 395.307 30.9571 394.556 25.9679C394.506 25.6272 394.407 25.291 394.398 24.9503C394.375 24.139 394.389 23.3231 394.389 22.4625H394.393ZM411.17 33.7588C417.447 34.4491 422.652 29.034 422.426 22.3639C422.254 17.2536 418.392 11.6638 411.003 11.7579C404.826 11.8386 400.15 16.3705 399.924 22.3504C399.689 28.4916 404.319 34.3819 411.17 33.7633V33.7588Z" stroke="#131C50" stroke-width="2" mask="url(#path-1-inside-1_4019_1434)"/>
<path d="M346.26 22.709C346.26 17.8319 346.278 12.9548 346.242 8.07763C346.237 7.20799 346.468 6.81352 347.395 6.85835C348.557 6.91662 349.724 6.89421 350.89 6.88076C351.587 6.87179 351.836 7.22144 351.827 7.87143C351.808 8.90244 351.827 9.93345 351.827 10.9645C351.827 19.6877 351.827 28.411 351.827 37.1342C351.827 38.4835 351.799 38.5104 350.447 38.5104C349.407 38.5104 348.363 38.4656 347.327 38.5238C346.486 38.5687 346.242 38.2414 346.246 37.4346C346.273 32.526 346.26 27.6175 346.26 22.709Z" stroke="#131C50" stroke-width="2" mask="url(#path-1-inside-1_4019_1434)"/>
<path d="M365.253 46.0233V54.2311H361.861V40.8952C363.01 40.8952 364.167 40.8638 365.316 40.9221C365.556 40.9355 365.854 41.2269 365.99 41.4689C367.541 44.1406 369.101 46.8033 370.571 49.5198C371 50.3132 371.145 51.2546 371.457 52.2408C372.506 48.2198 375.088 45.1089 376.906 41.6034C377.196 41.0476 377.571 40.8548 378.182 40.8817C379.149 40.9221 380.122 40.8907 381.144 40.8907V54.2221H377.806V46.1533C377.612 46.2071 377.508 46.2206 377.503 46.243C377.349 48.4977 375.952 50.1967 374.849 52.0211C373.37 54.4597 373.37 54.4462 370.498 54.3297C369.874 54.3028 369.445 54.119 369.115 53.5542C368.486 52.4783 367.699 51.4877 367.134 50.3805C366.442 49.0222 365.913 47.5788 365.248 46.0233H365.253Z" stroke="#131C50" stroke-width="2" mask="url(#path-1-inside-1_4019_1434)"/>
<path d="M464.039 54.2804C462.714 54.2804 461.389 54.3342 460.068 54.2669C458.657 54.1952 457.531 53.478 456.781 52.3304C454.89 49.4257 454.863 45.5213 456.948 42.6748C457.825 41.4779 459.105 40.8952 460.615 40.8907C462.7 40.8817 464.78 40.8907 466.865 40.8907C469.809 40.8907 471.464 42.1279 472.287 44.9475C473.033 47.4936 472.812 49.9367 471.405 52.2139C470.555 53.5945 469.262 54.2714 467.629 54.2849C466.431 54.2938 465.233 54.2849 464.034 54.2849L464.039 54.2804ZM464.102 43.9523C463.315 43.9523 462.524 43.9434 461.737 43.9523C460.502 43.9613 459.526 44.5575 459.277 45.7095C459.064 46.6957 458.924 47.7716 459.091 48.7533C459.385 50.4791 460.091 51.3129 462.09 51.268C463.605 51.2322 465.115 51.2591 466.63 51.2367C467.598 51.2187 468.33 50.7749 468.706 49.8784C469.325 48.4081 469.334 46.9109 468.751 45.4271C468.366 44.4499 467.607 43.9792 466.562 43.9613C465.744 43.9479 464.921 43.9613 464.102 43.9613V43.9523Z" stroke="#131C50" stroke-width="2" mask="url(#path-1-inside-1_4019_1434)"/>
<path d="M395.384 54.2445V44.7099H397.979C398.02 45.1089 398.061 45.5257 398.129 46.234C398.997 44.5306 400.39 44.6337 401.774 44.6382C405.052 44.6561 408.335 44.6427 411.614 44.6427C414.191 44.6427 415.557 45.7588 415.76 48.3229C415.914 50.246 415.792 52.187 415.792 54.1997H413.183C413.156 53.85 413.124 53.4914 413.083 53.0028C411.238 55.1545 408.824 54.1862 406.635 54.24C405.509 54.2669 404.962 53.348 404.713 52.2721C404.333 50.618 405.228 48.5919 407.408 48.7488C409.099 48.8698 410.804 48.7712 412.491 48.7712C412.69 47.8433 412.278 47.5205 411.496 47.5205C407.679 47.5205 403.863 47.5205 400.046 47.5205C399.309 47.5205 398.802 47.8567 398.757 48.5964C398.671 50.0577 398.653 51.5235 398.613 52.9894C398.599 53.4107 398.613 53.8321 398.613 54.2445H395.384ZM412.518 50.3401C411.198 50.3401 409.94 50.3087 408.683 50.367C408.412 50.3805 408.159 50.7211 407.901 50.9094C408.141 51.1022 408.371 51.4473 408.62 51.4608C409.624 51.5191 410.632 51.4922 411.636 51.4608C412.274 51.4429 412.618 51.1111 412.518 50.3401Z" stroke="#131C50" stroke-width="2" mask="url(#path-1-inside-1_4019_1434)"/>
<path d="M430.43 40.5231H433.623V46.0099C435.201 44.2034 437.069 44.4544 438.873 44.8668C440.352 45.203 441.256 46.3102 441.387 47.8029C441.55 49.6991 441.532 51.6087 441.6 53.5138C441.618 54.0607 441.387 54.3252 440.822 54.3162C440.035 54.3028 439.253 54.3162 438.321 54.3162C438.321 52.7742 438.335 51.286 438.312 49.7932C438.303 49.336 438.258 48.8564 438.109 48.4215C437.729 47.2964 437.024 47.4936 434.948 47.5564C434.066 47.5833 433.65 48.2243 433.65 49.0939C433.65 50.4387 433.65 51.7835 433.65 53.1283C433.65 53.469 433.65 53.8052 433.65 54.2849H430.439V40.5231H430.43Z" stroke="#131C50" stroke-width="2" mask="url(#path-1-inside-1_4019_1434)"/>
<path d="M390.355 48.7757C390.464 47.8522 390.057 47.5116 389.225 47.5205C387.271 47.534 385.313 47.5205 383.278 47.5205V44.6606C385.661 44.6606 388.026 44.5351 390.373 44.7009C392.232 44.8309 393.426 46.2116 393.611 48.3812C393.774 50.2998 393.647 52.2408 393.647 54.2311H390.997C390.966 53.8276 390.939 53.4332 390.902 52.9714C389.017 55.1769 386.529 54.2804 384.255 54.2266C383.065 54.1997 382.319 52.7114 382.45 51.147C382.564 49.7753 383.5 48.7936 384.766 48.7802C386.624 48.7622 388.483 48.7757 390.351 48.7757H390.355ZM390.369 50.3401C389.053 50.3401 387.796 50.3087 386.538 50.3625C386.263 50.376 386.005 50.6942 385.738 50.8691C385.996 51.0753 386.24 51.4384 386.511 51.4563C387.447 51.528 388.397 51.4832 389.338 51.4742C390.016 51.4697 390.382 51.1425 390.369 50.3312V50.3401Z" stroke="#131C50" stroke-width="2" mask="url(#path-1-inside-1_4019_1434)"/>
<path d="M425.438 54.258C425.438 53.6125 425.456 52.9714 425.438 52.3304C425.393 51.0573 425.492 49.7484 425.221 48.5246C424.85 46.8257 423.326 47.7043 422.29 47.5429C421.535 47.4264 421.006 47.8209 420.952 48.6322C420.87 49.8739 420.816 51.1156 420.766 52.3573C420.744 52.949 420.766 53.5407 420.766 54.2087H417.542V44.7144H420.133C420.201 45.0371 420.264 45.3375 420.332 45.6557C422.444 44.3647 424.61 44.2213 426.822 45.212C427.957 45.7185 428.481 46.6868 428.535 47.906C428.63 49.9905 428.721 52.0749 428.816 54.258H425.438Z" stroke="#131C50" stroke-width="2" mask="url(#path-1-inside-1_4019_1434)"/>
<path d="M450.83 48.7757C450.789 48.3319 450.757 47.9778 450.716 47.5698C451.675 47.2874 452.625 47.005 453.62 46.7092C454.488 49.197 453.963 51.6984 454.117 54.2266H451.472C451.413 53.8545 451.354 53.4735 451.259 52.8549C450.49 54.2669 449.328 54.3655 448.103 54.3387C447.063 54.3162 446.023 54.3431 444.982 54.2938C443.911 54.2445 443.178 53.5407 443.07 52.4828C443.011 51.9315 443.006 51.3666 443.061 50.8153C443.196 49.466 443.983 48.7891 445.371 48.7846C447.162 48.7757 448.957 48.7846 450.834 48.7846L450.83 48.7757ZM450.775 50.3401C449.491 50.3401 448.207 50.3132 446.922 50.3625C446.66 50.3715 446.411 50.6539 446.154 50.8108C446.389 51.0394 446.61 51.4473 446.864 51.4608C447.868 51.528 448.881 51.4966 449.884 51.4608C450.522 51.4384 450.866 51.1067 450.775 50.3401Z" stroke="#131C50" stroke-width="2" mask="url(#path-1-inside-1_4019_1434)"/>
<path d="M451.16 44.7323C450.988 45.5482 450.861 46.3102 450.644 47.0499C450.585 47.2471 450.264 47.4981 450.061 47.5026C447.958 47.534 445.855 47.525 443.689 47.525V44.7368H451.16V44.7323Z" stroke="#131C50" stroke-width="2" mask="url(#path-1-inside-1_4019_1434)"/>
<path d="M310.865 0V61" stroke="#131C50" stroke-width="3" stroke-miterlimit="10"/>
<mask id="path-3-inside-2_4019_1434" fill="white">
<path d="M75.4879 50.8835L69.469 44.8023V25.7639H62.9254V17.6313H69.469V8.77227H79.8744V17.6313H91.0621V25.7639H79.8744V41.4305L80.7245 42.2894H91.5867V50.8835H75.4879Z"/>
<path d="M97.5378 50.8835V17.6313H105.85V20.2767H107.093L110.168 17.6313H122.206V26.2253H111.018L107.943 28.7382V50.8835H97.5378Z"/>
<path d="M126.131 12.4091V4.60547H136.794V12.4045H126.131V12.4091ZM126.262 50.8835V17.6313H136.668V50.8835H126.262Z"/>
<path d="M146.806 50.8835V12.6741H140.263V4.60547H157.212V50.8789H146.806V50.8835Z"/>
<path d="M166.5 50.8835V4.60547H176.906V19.6096H177.561L179.981 17.6267H193.85L201.113 24.9643V50.8789H190.707V28.4686L188.482 26.2208H180.239L176.901 28.9301V50.8789H166.496L166.5 50.8835Z"/>
<path d="M213.806 50.8835L207.787 44.8023V36.3408L214.005 30.0586H232.193V27.9432L230.294 25.9603H212.237V17.6313H235.856L242.594 24.4389V50.8835H234.283V48.1741H233.233L230.027 50.8835H213.802H213.806ZM229.182 42.9519L232.193 40.5076V36.8068H219.825L218.188 38.4607V41.764L219.364 42.9519H229.182Z"/>
<path d="M250.449 50.8835V42.9519H271.454L272.63 41.764V39.4522L271.454 38.1957H255.948L249.929 32.1786V23.6485L255.948 17.6313H281.204V25.5628H261.51L260.335 26.7507V29.0626L261.51 30.2505H277.017L283.036 36.3316V44.7932L277.017 50.8743H250.454L250.449 50.8835Z"/>
<path d="M39.8535 7.11834H7.46152L0 15.2463L0.393425 47.7766L7.65597 54.7213H38.8722L47.1206 47.7766L47.514 14.8489L39.8581 7.11377L39.8535 7.11834ZM41.2464 44.8937L39.6817 46.2095H35.0103L33.5994 44.8663L33.5904 44.117H16.0717L12.0198 40.0233V33.3253L16.0717 29.2316H28.598L30.8093 26.9975V23.4612L28.598 21.227H13.9191L13.9101 22.0996L12.3454 23.42H7.67406L6.26315 22.0722L6.20436 17.1744L7.61527 15.6347H12.5127L13.9643 17.1059L13.9553 18.0653H30.2576L34.3094 22.159V28.2996L30.2576 32.3933H17.7313L15.52 34.6275V38.7212L17.7313 40.9553H33.5542L33.5452 39.9685L34.9561 38.4288H39.849L41.3051 39.8954L41.2464 44.8937Z"/>
</mask>
<path d="M75.4879 50.8835L69.469 44.8023V25.7639H62.9254V17.6313H69.469V8.77227H79.8744V17.6313H91.0621V25.7639H79.8744V41.4305L80.7245 42.2894H91.5867V50.8835H75.4879Z" fill="#131C50"/>
<path d="M97.5378 50.8835V17.6313H105.85V20.2767H107.093L110.168 17.6313H122.206V26.2253H111.018L107.943 28.7382V50.8835H97.5378Z" fill="#131C50"/>
<path d="M126.131 12.4091V4.60547H136.794V12.4045H126.131V12.4091ZM126.262 50.8835V17.6313H136.668V50.8835H126.262Z" fill="#131C50"/>
<path d="M146.806 50.8835V12.6741H140.263V4.60547H157.212V50.8789H146.806V50.8835Z" fill="#131C50"/>
<path d="M166.5 50.8835V4.60547H176.906V19.6096H177.561L179.981 17.6267H193.85L201.113 24.9643V50.8789H190.707V28.4686L188.482 26.2208H180.239L176.901 28.9301V50.8789H166.496L166.5 50.8835Z" fill="#131C50"/>
<path d="M213.806 50.8835L207.787 44.8023V36.3408L214.005 30.0586H232.193V27.9432L230.294 25.9603H212.237V17.6313H235.856L242.594 24.4389V50.8835H234.283V48.1741H233.233L230.027 50.8835H213.802H213.806ZM229.182 42.9519L232.193 40.5076V36.8068H219.825L218.188 38.4607V41.764L219.364 42.9519H229.182Z" fill="#131C50"/>
<path d="M250.449 50.8835V42.9519H271.454L272.63 41.764V39.4522L271.454 38.1957H255.948L249.929 32.1786V23.6485L255.948 17.6313H281.204V25.5628H261.51L260.335 26.7507V29.0626L261.51 30.2505H277.017L283.036 36.3316V44.7932L277.017 50.8743H250.454L250.449 50.8835Z" fill="#131C50"/>
<path d="M39.8535 7.11834H7.46152L0 15.2463L0.393425 47.7766L7.65597 54.7213H38.8722L47.1206 47.7766L47.514 14.8489L39.8581 7.11377L39.8535 7.11834ZM41.2464 44.8937L39.6817 46.2095H35.0103L33.5994 44.8663L33.5904 44.117H16.0717L12.0198 40.0233V33.3253L16.0717 29.2316H28.598L30.8093 26.9975V23.4612L28.598 21.227H13.9191L13.9101 22.0996L12.3454 23.42H7.67406L6.26315 22.0722L6.20436 17.1744L7.61527 15.6347H12.5127L13.9643 17.1059L13.9553 18.0653H30.2576L34.3094 22.159V28.2996L30.2576 32.3933H17.7313L15.52 34.6275V38.7212L17.7313 40.9553H33.5542L33.5452 39.9685L34.9561 38.4288H39.849L41.3051 39.8954L41.2464 44.8937Z" fill="#131C50"/>
<path d="M75.4879 50.8835L69.469 44.8023V25.7639H62.9254V17.6313H69.469V8.77227H79.8744V17.6313H91.0621V25.7639H79.8744V41.4305L80.7245 42.2894H91.5867V50.8835H75.4879Z" stroke="#131C50" stroke-width="2" mask="url(#path-3-inside-2_4019_1434)"/>
<path d="M97.5378 50.8835V17.6313H105.85V20.2767H107.093L110.168 17.6313H122.206V26.2253H111.018L107.943 28.7382V50.8835H97.5378Z" stroke="#131C50" stroke-width="2" mask="url(#path-3-inside-2_4019_1434)"/>
<path d="M126.131 12.4091V4.60547H136.794V12.4045H126.131V12.4091ZM126.262 50.8835V17.6313H136.668V50.8835H126.262Z" stroke="#131C50" stroke-width="2" mask="url(#path-3-inside-2_4019_1434)"/>
<path d="M146.806 50.8835V12.6741H140.263V4.60547H157.212V50.8789H146.806V50.8835Z" stroke="#131C50" stroke-width="2" mask="url(#path-3-inside-2_4019_1434)"/>
<path d="M166.5 50.8835V4.60547H176.906V19.6096H177.561L179.981 17.6267H193.85L201.113 24.9643V50.8789H190.707V28.4686L188.482 26.2208H180.239L176.901 28.9301V50.8789H166.496L166.5 50.8835Z" stroke="#131C50" stroke-width="2" mask="url(#path-3-inside-2_4019_1434)"/>
<path d="M213.806 50.8835L207.787 44.8023V36.3408L214.005 30.0586H232.193V27.9432L230.294 25.9603H212.237V17.6313H235.856L242.594 24.4389V50.8835H234.283V48.1741H233.233L230.027 50.8835H213.802H213.806ZM229.182 42.9519L232.193 40.5076V36.8068H219.825L218.188 38.4607V41.764L219.364 42.9519H229.182Z" stroke="#131C50" stroke-width="2" mask="url(#path-3-inside-2_4019_1434)"/>
<path d="M250.449 50.8835V42.9519H271.454L272.63 41.764V39.4522L271.454 38.1957H255.948L249.929 32.1786V23.6485L255.948 17.6313H281.204V25.5628H261.51L260.335 26.7507V29.0626L261.51 30.2505H277.017L283.036 36.3316V44.7932L277.017 50.8743H250.454L250.449 50.8835Z" stroke="#131C50" stroke-width="2" mask="url(#path-3-inside-2_4019_1434)"/>
<path d="M39.8535 7.11834H7.46152L0 15.2463L0.393425 47.7766L7.65597 54.7213H38.8722L47.1206 47.7766L47.514 14.8489L39.8581 7.11377L39.8535 7.11834ZM41.2464 44.8937L39.6817 46.2095H35.0103L33.5994 44.8663L33.5904 44.117H16.0717L12.0198 40.0233V33.3253L16.0717 29.2316H28.598L30.8093 26.9975V23.4612L28.598 21.227H13.9191L13.9101 22.0996L12.3454 23.42H7.67406L6.26315 22.0722L6.20436 17.1744L7.61527 15.6347H12.5127L13.9643 17.1059L13.9553 18.0653H30.2576L34.3094 22.159V28.2996L30.2576 32.3933H17.7313L15.52 34.6275V38.7212L17.7313 40.9553H33.5542L33.5452 39.9685L34.9561 38.4288H39.849L41.3051 39.8954L41.2464 44.8937Z" stroke="#131C50" stroke-width="2" mask="url(#path-3-inside-2_4019_1434)"/>
</svg>
