<svg width="281" height="281" viewBox="0 0 281 281" fill="none" xmlns="http://www.w3.org/2000/svg">
<g clip-path="url(#clip0_22_2760)">
<path d="M140.18 280.32C217.577 280.32 280.32 217.577 280.32 140.18C280.32 62.7828 217.577 0.039978 140.18 0.039978C62.7829 0.039978 0.0400391 62.7828 0.0400391 140.18C0.0400391 217.577 62.7829 280.32 140.18 280.32Z" fill="url(#paint0_linear_22_2760)"/>
<path d="M167 123.47C171.82 125.04 176.65 126.6 181.47 128.17C182.4 128.58 183.29 129.07 184.25 129.4C200.98 135.15 208.23 155.1 199.05 170.19C193.14 179.92 181.63 185.27 170.78 183.33C159.06 181.24 150.27 172.86 147.88 161.43C147.7 160.59 147.44 160.07 146.52 159.78C140.48 157.87 134.45 155.91 128.44 153.91C127.61 153.63 127.13 153.82 126.5 154.36C117.15 162.33 106.77 164.02 95.57 158.92C81.22 152.39 75.44 134.18 83.17 120.46C89.93 108.47 105.64 103.6 118.77 107.8C118.03 107.67 119.48 108.03 118.77 107.8C123.59 109.37 128.42 110.93 133.24 112.5C138.06 114.07 142.89 115.63 147.71 117.2C149.32 117.72 150.93 118.24 152.53 118.77C157.35 120.34 162.18 121.9 167 123.47ZM110.46 137.36C114.21 138.58 117.74 139.72 121.27 140.87C122.07 138.42 122.81 136.13 123.61 133.68C120.01 132.51 116.47 131.36 112.78 130.16C113.98 126.47 115.13 122.93 116.27 119.4C113.82 118.6 111.53 117.86 109.08 117.06C107.91 120.66 106.76 124.2 105.56 127.89C101.87 126.69 98.33 125.54 94.8 124.4C94 126.85 93.26 129.14 92.46 131.59C96.06 132.76 99.6 133.91 103.29 135.11C102.09 138.8 100.94 142.34 99.8 145.87C102.25 146.67 104.54 147.41 106.94 148.19C108.1 144.62 109.23 141.13 110.46 137.36ZM172.84 154.94C171.75 152.9 170.77 150.99 169.71 149.12C169.53 148.8 169.12 148.53 168.76 148.4C167.42 147.92 166.07 147.46 164.7 147.08C163.18 146.65 161.99 147.27 161.45 148.78C160.9 150.32 160.39 151.87 159.94 153.44C159.5 154.96 160.13 156.15 161.62 156.7C162.95 157.19 164.31 157.61 165.68 158.02C166.01 158.12 166.44 158.16 166.73 158.02C168.71 157.06 170.66 156.05 172.83 154.94H172.84ZM174.47 158.03C172.33 159.17 170.5 160.1 168.72 161.12C168.31 161.35 167.93 161.81 167.76 162.25C167.27 163.53 166.86 164.84 166.48 166.15C166.02 167.76 166.63 168.94 168.23 169.51C169.72 170.04 171.22 170.53 172.74 170.97C174.35 171.44 175.53 170.82 176.11 169.24C176.58 167.95 177 166.65 177.37 165.33C177.49 164.92 177.49 164.37 177.31 163.99C176.45 162.08 175.51 160.19 174.47 158.02V158.03ZM175.81 153.27C179.58 151.71 183.32 150.47 183.74 145.78C183.74 145.73 183.77 145.68 183.79 145.63C184.31 143.82 183.75 142.64 182 142.03C180.56 141.52 179.11 141.05 177.64 140.62C175.95 140.12 174.78 140.74 174.18 142.42C173.74 143.66 173.31 144.91 172.98 146.18C172.86 146.64 172.88 147.23 173.07 147.66C173.92 149.53 174.85 151.35 175.8 153.28L175.81 153.27ZM177.4 156.55C178.56 158.69 179.55 160.59 180.61 162.46C180.79 162.78 181.2 163.04 181.56 163.18C182.85 163.64 184.15 164.07 185.46 164.45C187.08 164.92 188.29 164.34 188.85 162.78C189.4 161.25 189.91 159.69 190.36 158.13C190.79 156.61 190.17 155.42 188.67 154.88C187.34 154.39 185.98 153.95 184.61 153.57C184.2 153.46 183.67 153.51 183.28 153.69C181.42 154.55 179.59 155.47 177.38 156.55H177.4Z" fill="white"/>
<path d="M52.59 58.08L72.17 66.09L72.9 66.81L71.14 68.59L65.58 66.26L58.15 73.79L60.55 79.32L58.85 81.04L58.12 80.32L49.76 60.95L52.59 58.08ZM57.08 71.33L63.09 65.24L53.14 61.08L52.79 61.44L57.08 71.33Z" fill="white"/>
<path d="M71.53 46.47L69.92 44.01L72.25 42.49L73.86 44.95L71.54 46.47H71.53ZM81.31 61.16L73.26 48.85L75.35 47.48L83.4 59.79L81.31 61.16Z" fill="white"/>
<path d="M86.35 57.75L79.71 44.63L81.44 43.75L81.97 44.8L82.42 44.57L83.08 42.92L88.88 39.99L92.88 41.43L98.12 51.8L95.89 52.93L91.11 43.48L89.02 42.72L84.83 44.84L83.85 47.28L88.58 56.63L86.35 57.76V57.75Z" fill="white"/>
<path d="M103.9 49.69L99.83 47.44L97.42 39.87L99.44 35.68L106.72 33.37L110.79 35.62L113.2 43.19L111.18 47.38L103.9 49.69ZM104.21 46.97L109.37 45.33L110.51 42.96L108.73 37.35L106.43 36.08L101.27 37.72L100.13 40.09L101.91 45.7L104.21 46.98V46.97Z" fill="white"/>
<path d="M120.87 45.22L113.52 32.4L113.38 31.53L115.74 31.15L122.17 42.48L122.64 42.4L125.2 29.63L127.45 29.27L127.59 30.14L124.66 44.61L120.88 45.22H120.87Z" fill="white"/>
<path d="M132.98 43.68L130.57 41.23L130.49 37.26L133.07 34.41L141.12 34.24L141.09 32.77L139.67 31.33L132.17 31.49L132.12 28.99L140.73 28.81L143.57 31.69L143.82 43.45L141.88 43.49L141.85 42.02H141.35L139.66 43.54L133 43.68H132.98ZM134.03 41.16L138.89 41.06L141.21 38.98L141.16 36.74L134.22 36.89L133 38.24L133.04 40.15L134.03 41.16Z" fill="white"/>
<path d="M152.58 32.02L150.56 33.71L149.87 39.55L151.44 41.66L159.16 42.58L158.87 45.06L154.73 44.57L154.36 45.32L154.33 45.55L155.43 45.68L156.64 47.3L156.41 49.2L154.86 50.5L150.72 50.01L150.93 48.26L154.24 48.65L154.55 48.39L154.64 47.66L154.4 47.33L151.92 47.04L152.02 46.16L152.8 44.33L150.04 44L147.27 40.26L148.21 32.37L151.78 29.39L160.6 30.44L160.31 32.92L152.59 32L152.58 32.02Z" fill="white"/>
<path d="M162.72 45.9L161.07 42.89L162.07 39.05L165.33 37.01L173.12 39.04L173.49 37.62L172.52 35.85L165.26 33.96L165.89 31.54L174.22 33.71L176.16 37.26L173.19 48.64L171.31 48.15L171.68 46.73L171.2 46.6L169.16 47.59L162.71 45.91L162.72 45.9ZM164.43 43.76L169.13 44.99L171.93 43.62L172.49 41.46L165.77 39.71L164.23 40.67L163.75 42.52L164.43 43.76ZM166.7 29.77L167.41 27.06L169.3 25.88L172.26 26.65L173.54 29.57L174.59 29.84L175.11 29.52L175.63 27.53L177.65 28.06L176.94 30.76L175.05 31.94L172.09 31.17L170.81 28.25L169.76 27.98L169.24 28.3L168.72 30.29L166.7 29.76V29.77Z" fill="white"/>
<path d="M178.95 50.82L177.37 46.44L180.54 39.16L184.82 37.33L191.82 40.37L193.4 44.74L190.23 52.02L185.95 53.85L178.95 50.81V50.82ZM180.96 48.97L185.92 51.13L188.34 50.1L190.68 44.7L189.79 42.23L184.82 40.07L182.4 41.1L180.06 46.49L180.95 48.96L180.96 48.97Z" fill="white"/>
<path d="M201.65 63.21L201.15 58.59L205.95 52.27L210.54 51.51L217.62 56.89L216.11 58.88L209.92 54.18L207.33 54.61L203.77 59.29L204.05 61.9L210.24 66.6L208.73 68.59L201.65 63.21Z" fill="white"/>
<path d="M212.42 72.1L212.62 67.45L218.32 61.92L222.97 61.85L228.29 67.33L228.09 71.98L222.39 77.51L217.74 77.58L212.42 72.1ZM214.99 71.15L218.76 75.04L221.39 75L225.61 70.9L225.72 68.27L221.95 64.39L219.32 64.43L215.1 68.53L214.99 71.16V71.15Z" fill="white"/>
<path d="M222.06 81.93L234.5 74.09L235.54 75.74L234.54 76.37L234.81 76.79L236.52 77.29L239.24 81.61L238.64 83.92L238.95 84.41L241.47 85.15L244.19 89.47L243.13 93.58L233.3 99.77L231.97 97.66L240.93 92.02L241.48 89.86L239.72 87.06L237.23 86.3L228.35 91.9L227.02 89.79L235.98 84.14L236.53 81.98L234.77 79.19L232.28 78.43L223.4 84.03L222.07 81.91L222.06 81.93Z" fill="white"/>
<path d="M235.24 105.4L237.33 101.24L244.79 98.52L249.06 100.37L251.58 107.29L249.49 111.45L244.38 113.31L240.53 102.74L239.15 103.24L237.97 105.59L240.87 113.55L238.52 114.41L235.25 105.41L235.24 105.4ZM242.88 101.88L245.87 110.1L247.67 109.45L248.85 107.1L247.09 102.27L244.68 101.23L242.88 101.89V101.88Z" fill="white"/>
<path d="M252.2 119.84L249.99 118.41L244.2 119.47L242.64 121.59L244.04 129.24L241.58 129.69L240.83 125.59L240 125.46L239.77 125.5L239.97 126.59L238.77 128.22L236.89 128.56L235.2 127.46L234.45 123.36L236.19 123.04L236.79 126.32L237.13 126.54L237.85 126.41L238.09 126.08L237.64 123.62L238.51 123.46L240.49 123.66L239.99 120.93L242.74 117.18L250.55 115.75L254.45 118.29L256.05 127.03L253.59 127.48L252.19 119.83L252.2 119.84Z" fill="white"/>
<path d="M241.83 133.45L244.28 131.04L248.25 130.96L251.1 133.54L251.27 141.59L252.74 141.56L254.18 140.14L254.02 132.64L256.52 132.59L256.7 141.2L253.82 144.04L242.06 144.29L242.02 142.34L243.49 142.31V141.81L241.97 140.12L241.83 133.46V133.45ZM244.35 134.51L244.45 139.37L246.53 141.69L248.77 141.64L248.62 134.7L247.27 133.48L245.36 133.52L244.35 134.51Z" fill="white"/>
<path d="M28.7 144.91L32.29 142.03L40.2 142.6L43.35 145.96L42.73 154.63L40.24 154.45L40.78 146.86L39 144.96L33.14 144.54L31.11 146.16L30.57 153.75L28.08 153.57L28.7 144.9V144.91Z" fill="white"/>
<path d="M28.45 161.63L31.4699 158.15L39.36 157.27L43.06 160.01L43.88 167.44L40.86 170.92L32.97 171.79L29.27 169.05L28.45 161.62V161.63ZM31.0499 162.43L31.6299 167.7L33.72 169.25L39.56 168.6L41.2599 166.63L40.68 161.36L38.59 159.81L32.75 160.46L31.0499 162.43Z" fill="white"/>
<path d="M30.8199 179.03L44.6099 173.95L45.2699 175.74L44.1699 176.15L44.3399 176.61L45.8899 177.43L47.6199 182.12L46.5499 184.22L46.7499 184.76L49.0399 185.97L50.7699 190.66L48.8599 194.4L37.9699 198.41L37.1299 196.12L47.0599 192.46L48.0599 190.5L46.9399 187.47L44.6699 186.25L34.8299 189.87L33.9799 187.58L43.9099 183.92L44.9099 181.96L43.7899 178.92L41.5199 177.7L31.6699 181.33L30.8299 179.04L30.8199 179.03Z" fill="white"/>
<path d="M49.23 215.4L49.85 210.84L55.98 205.8L60.57 206.07L66.09 212.79L64.16 214.38L59.33 208.5L56.73 208.35L52.19 212.08L51.84 214.66L56.67 220.54L54.74 222.13L49.21 215.41L49.23 215.4Z" fill="white"/>
<path d="M60.43 227.62L60.27 223.02L65.45 217.01L70.02 216.49L75.68 221.37L75.84 225.97L70.66 231.98L66.09 232.5L60.43 227.62ZM62.88 226.43L66.89 229.89L69.47 229.6L73.31 225.15L73.22 222.55L69.21 219.09L66.63 219.38L62.79 223.83L62.88 226.43Z" fill="white"/>
<path d="M73.45 238.05L80.92 225.4L82.56 226.37L81.96 227.38L82.38 227.63L84.1 227.28L89.58 230.51L90.47 234.62L84.57 244.62L82.46 243.38L87.84 234.27L87.38 232.12L83.42 229.79L80.88 230.3L75.56 239.31L73.45 238.07V238.05Z" fill="white"/>
<path d="M90.1799 247.29L97.5199 228.07L99.7999 228.94L97.3699 235.31L97.7999 235.48L99.1299 234.98L104.82 237.15L106.38 241.05L102.24 251.89L99.9499 251.02L103.73 241.14L102.91 239.1L98.8699 237.56L96.1099 238.61L92.4599 248.16L90.1699 247.29H90.1799Z" fill="white"/>
<path d="M110.86 254.13L108.48 250.19L110.07 242.42L113.81 239.74L120.86 241.19L123.24 245.13L122.15 250.46L111.37 248.25L111.08 249.69L112.43 251.92L120.55 253.59L120.05 256.04L110.87 254.16L110.86 254.13ZM111.88 245.79L120.27 247.51L120.65 245.64L119.3 243.41L114.38 242.4L112.27 243.92L111.89 245.79H111.88Z" fill="white"/>
<path d="M129.22 256.95L126.28 253.41L126.71 245.49L130.01 242.28L138.69 242.75L138.56 245.25L130.96 244.84L129.09 246.65L128.77 252.52L130.43 254.52L138.03 254.93L137.9 257.42L129.22 256.95Z" fill="white"/>
<path d="M141.63 239.58L141.5 236.64L144.21 236.52L144.34 239.45L141.63 239.57V239.58ZM142.56 257.19L141.9 242.51L144.34 242.4L145 257.08L142.56 257.19Z" fill="white"/>
<path d="M150.94 257.03L148.23 242.59L150.1 242.24L150.32 243.4L150.8 243.31L151.86 241.91L156.77 240.99L158.67 242.4L159.23 242.29L160.81 240.23L165.73 239.31L169.1 241.82L171.24 253.23L168.84 253.68L166.89 243.29L165.12 241.97L161.94 242.57L160.36 244.6L162.3 254.91L159.9 255.36L157.95 244.96L156.18 243.65L153 244.25L151.42 246.28L153.36 256.59L150.96 257.04L150.94 257.03Z" fill="white"/>
<path d="M179.78 250.12L175.65 248.1L172.78 240.7L174.48 236.42L181.2 233.82L185.33 235.84L187.29 240.91L177.03 244.88L177.56 246.25L179.9 247.39L187.63 244.4L188.53 246.73L179.79 250.11L179.78 250.12ZM176.13 242.56L184.11 239.47L183.42 237.69L181.08 236.55L176.39 238.37L175.43 240.79L176.12 242.57L176.13 242.56Z" fill="white"/>
<path d="M194.39 243.98L187.04 231.26L188.69 230.31L189.28 231.33L189.7 231.08L190.24 229.41L195.75 226.23L199.76 227.48L205.57 237.53L203.45 238.75L198.16 229.59L196.06 228.94L192.08 231.24L191.28 233.7L196.51 242.76L194.39 243.98Z" fill="white"/>
<path d="M212.4 232.5L209.84 232.06L203.57 223.91L201.42 225.57L199.9 223.59L202.05 221.93L199.72 218.9L201.66 217.41L203.99 220.44L207.87 217.45L209.39 219.43L205.51 222.41L211.16 229.75L211.75 229.85L215.41 227.03L216.93 229.01L212.41 232.49L212.4 232.5Z" fill="white"/>
<path d="M222.35 224.11L217.75 223.96L212.1 218.39L211.89 213.79L217.13 208.46L221.73 208.61L227.38 214.18L227.6 218.78L222.36 224.11H222.35ZM221.33 221.58L225.05 217.81L224.93 215.21L220.74 211.09L218.14 211.01L214.42 214.78L214.54 217.38L218.73 221.5L221.33 221.58Z" fill="white"/>
</g>
<defs>
<linearGradient id="paint0_linear_22_2760" x1="3.90632e-05" y1="140.18" x2="280.35" y2="140.18" gradientUnits="userSpaceOnUse">
<stop stop-color="#795BDF"/>
<stop offset="0.1" stop-color="#7D5BD7"/>
<stop offset="0.24" stop-color="#895BC4"/>
<stop offset="0.41" stop-color="#9C5BA3"/>
<stop offset="0.6" stop-color="#B75C76"/>
<stop offset="0.8" stop-color="#D95D3D"/>
<stop offset="1" stop-color="#FE5E00"/>
</linearGradient>
<clipPath id="clip0_22_2760">
<rect width="280.35" height="280.35" fill="white"/>
</clipPath>
</defs>
</svg>
