<svg width="348" height="176" viewBox="0 0 348 176" fill="none" xmlns="http://www.w3.org/2000/svg">
<g clip-path="url(#clip0_4010_1081)">
<path d="M33.3268 109.459C31.3228 109.92 29.2239 109.66 27.3919 108.738L21.4392 105.729C19.1506 104.57 17.4787 102.472 16.8739 99.9828L12.1011 80.3445C11.5438 78.0508 11.941 75.633 13.192 73.6349L16.7672 67.9479C18.0063 65.9794 19.9748 64.5842 22.2455 64.064L41.8763 59.5712C44.2598 59.0273 46.7618 59.4943 48.7835 60.8658L54.422 64.6965C56.2837 65.9616 57.588 67.8888 58.0624 70.082L62.3016 89.5903C62.8055 91.9076 62.3431 94.3254 61.0268 96.2999L57.5821 101.461C56.337 103.323 54.4279 104.641 52.2401 105.144L33.3208 109.471L33.3268 109.459Z" fill="white"/>
<path d="M43.8387 68.1016L24.2079 72.5944L20.6387 78.2813L25.4056 97.9197L31.3582 100.929L50.2775 96.5954L53.7222 91.4346L49.483 71.9264L43.8387 68.1016Z" fill="#131C50"/>
<path d="M173.938 76.6675C171.934 77.1286 169.835 76.8685 168.003 75.9463L162.05 72.9373C159.756 71.7786 158.089 69.68 157.485 67.1912L152.712 47.5529C152.155 45.2592 152.552 42.8414 153.803 40.8432L157.378 35.1563C158.617 33.1877 160.586 31.7926 162.856 31.2724L182.487 26.7796C184.871 26.2357 187.373 26.7027 189.394 28.0742L195.033 31.9049C196.895 33.17 198.193 35.0972 198.673 37.2904L202.912 56.7986C203.416 59.116 202.954 61.5338 201.638 63.5083L198.193 68.6691C196.948 70.5313 195.039 71.8496 192.851 72.352L173.932 76.6793L173.938 76.6675Z" fill="white"/>
<path d="M184.45 35.3099L164.825 39.8027L161.25 45.4897L166.017 65.128L171.97 68.137L190.889 63.8097L194.334 58.6489L190.094 39.1406L184.45 35.3099Z" fill="#9EDCFA"/>
<path d="M70.7203 100.29C68.7163 100.751 66.6175 100.491 64.7854 99.569L58.8328 96.56C56.5442 95.4013 54.8722 93.3027 54.2675 90.8139L49.4947 71.1756C48.9373 68.8819 49.3346 66.464 50.5856 64.4659L54.1607 58.779C55.3999 56.8104 57.3683 55.4153 59.6391 54.8951L147.014 34.8961C149.398 34.3523 151.9 34.8193 153.921 36.1908L159.56 40.0215C161.421 41.2866 162.72 43.2137 163.2 45.4069L167.439 64.9152C167.943 67.2326 167.481 69.6504 166.165 71.6249L162.72 76.7857C161.475 78.6478 159.566 79.9661 157.378 80.4686L70.7144 100.302L70.7203 100.29Z" fill="white"/>
<path d="M148.982 43.4266L61.6074 63.4255L58.0322 69.1125L62.805 88.7508L68.7577 91.7598L155.421 71.9264L158.866 66.7656L154.627 47.2573L148.982 43.4266Z" fill="#FE5E00"/>
<path d="M209.203 68.5981C207.199 69.0592 205.1 68.7991 203.268 67.8769L197.316 64.8679C195.021 63.7092 193.355 61.6106 192.75 59.1218L187.978 39.4835C187.42 37.1898 187.817 34.772 189.069 32.7739L192.644 27.0869C193.883 25.1183 195.851 23.7232 198.122 23.203L298.523 0.224623C300.906 -0.319243 303.408 0.147773 305.43 1.51926L311.069 5.34998C312.93 6.61506 314.229 8.54224 314.709 10.7354L318.948 30.2437C319.452 32.561 318.99 34.9789 317.673 36.9534L314.229 42.1142C312.984 43.9763 311.075 45.2946 308.887 45.7912L209.209 68.604L209.203 68.5981Z" fill="white"/>
<path d="M300.485 8.75507L200.09 31.7334L196.515 37.4204L201.288 57.0587L207.241 60.0618L306.924 37.2549L310.369 32.094L306.13 12.5858L300.485 8.75507Z" fill="#795BDF"/>
<path d="M43.5067 96.5304C42.3979 96.7846 41.2299 96.826 40.0738 96.6309L31.1329 95.1175C27.6348 94.5264 24.8364 91.8898 24.0478 88.4433L23.698 86.9122C22.9095 83.4776 24.2613 79.907 27.1309 77.8438L34.5006 72.553C35.4611 71.8613 36.5401 71.3825 37.6666 71.1283C39.3267 70.7499 41.0876 70.8504 42.73 71.4711C45.481 72.5057 47.5324 74.8467 48.1905 77.702L48.5403 79.2331C48.7479 80.1435 48.8071 81.0657 48.7301 81.9642C49.1985 82.7386 49.5423 83.5958 49.7558 84.5062L50.1056 86.0373C50.7637 88.8867 49.9455 91.878 47.9297 94.0061C46.7201 95.2831 45.1786 96.1461 43.5067 96.5304Z" fill="white"/>
<path d="M39.6232 79.6646L39.973 81.1957L34.1033 85.3457L41.1884 86.4689L41.5382 88L32.5974 86.4866L32.2476 84.9555L39.6172 79.6646H39.6232Z" fill="white"/>
<path d="M175.781 64.2531C171.056 65.3349 166.343 62.391 165.258 57.6794L164.89 56.0892C164.807 55.7168 164.742 55.3502 164.706 54.9778C164.576 54.629 164.469 54.2684 164.386 53.9019L164.018 52.3117C162.933 47.6001 165.886 42.9004 170.611 41.8186L179.991 39.6727C184.716 38.5909 189.43 41.5349 190.515 46.2464L190.883 47.8366C190.966 48.209 191.031 48.5756 191.066 48.948C191.197 49.2968 191.303 49.6574 191.386 50.0239L191.754 51.6141C192.839 56.3257 189.886 61.0254 185.161 62.1072L175.781 64.2531Z" fill="white"/>
<path d="M172.948 51.9393L172.58 50.349L181.96 48.2031L182.327 49.7933L172.948 51.9393ZM173.819 55.7168L173.452 54.1265L182.831 51.9806L183.199 53.5709L173.819 55.7168Z" fill="#131C50"/>
<path d="M77.9837 81.4559L75.6773 80.0134L74.3315 74.155L72.2919 74.6221L71.7168 72.1215L73.7564 71.6544L73.1279 68.9292L76.371 68.1902L76.9995 70.9155L80.4857 70.1174L81.0608 72.618L77.5746 73.4161L78.6833 78.234L79.0094 78.435L82.3948 77.6606L83.0055 80.3031L77.9896 81.45L77.9837 81.4559Z" fill="white"/>
<path d="M84.8553 79.8833L82.5015 69.6563L85.0924 69.0651L85.2821 69.8809L85.6675 69.7922L86.4383 68.7577L90.1913 67.9005L90.802 70.543L87.3158 71.3411L86.5332 72.3342L88.0984 79.1444L84.8553 79.8892V79.8833Z" fill="white"/>
<path d="M91.045 66.0029L90.4937 63.6028L93.8198 62.8402L94.3712 65.2403L91.045 66.0029ZM93.8139 77.832L91.4601 67.605L94.7032 66.866L97.057 77.0931L93.8139 77.8379V77.832Z" fill="white"/>
<path d="M100.217 76.3659L97.5135 64.6137L95.474 65.0807L94.9048 62.5978L100.187 61.3918L103.466 75.627L100.223 76.3659H100.217Z" fill="white"/>
<path d="M106.354 74.959L103.075 60.7239L106.318 59.979L107.38 64.596L107.581 64.5487L108.198 63.7683L112.52 62.7811L115.307 64.5191L117.139 72.4879L113.896 73.2328L112.307 66.3399L111.453 65.8078L108.886 66.399L108.038 67.469L109.591 74.22L106.348 74.9649L106.354 74.959Z" fill="white"/>
<path d="M121.099 71.5894L118.793 70.147L118.194 67.5459L119.688 65.1694L125.356 63.8689L125.208 63.2186L124.479 62.7457L118.846 64.0344L118.259 61.4747L125.623 59.7899L128.208 61.4037L130.081 69.5381L127.49 70.1292L127.301 69.2957L126.975 69.3726L126.168 70.4366L121.111 71.5953L121.099 71.5894ZM122.273 68.7518L125.332 68.0543L126.097 67.0848L125.836 65.9438L121.982 66.8247L121.591 67.4513L121.822 68.4681L122.273 68.7518Z" fill="white"/>
<path d="M132.524 68.9705L131.961 66.5291L138.506 65.0334L138.791 64.5841L138.625 63.8748L138.168 63.5733L133.336 64.6787L131.036 63.26L130.431 60.6352L131.884 58.3533L139.757 56.5503L140.321 58.9918L134.184 60.3987L133.9 60.848L134.066 61.5574L134.516 61.8412L139.348 60.7357L141.655 62.1781L142.253 64.7792L140.807 67.0788L132.524 68.9765V68.9705Z" fill="white"/>
<path d="M209.665 38.4727L209.197 36.4391L211.236 35.972L211.705 38.0056L209.665 38.4727ZM212.576 50.6505L210.234 40.4826L212.072 40.0629L214.414 50.2308L212.576 50.6505Z" fill="white"/>
<path d="M217.473 49.5332L215.131 39.3653L216.56 39.0402L216.75 39.856L217.118 39.7732L217.912 38.7387L222.685 37.645L225.317 39.2884L227.167 47.3223L225.329 47.742L223.645 40.4235L222.264 39.5604L218.819 40.3466L217.645 41.8777L219.311 49.1194L217.473 49.5391V49.5332Z" fill="white"/>
<path d="M232.261 46.1459L229.379 44.3429L228.116 38.851L229.925 35.9779L235.533 34.6951L238.415 36.4982L239.678 41.99L237.869 44.8631L232.261 46.1459ZM232.676 44.2305L236.654 43.3201L237.674 41.6945L236.737 37.6273L235.106 36.6105L231.128 37.5209L230.108 39.1466L231.045 43.2137L232.676 44.2305Z" fill="white"/>
<path d="M245.677 43.0778L239.642 34.3996L239.5 33.7907L241.254 33.3887L246.543 41.0619L246.887 40.9851L248.286 31.7807L249.958 31.3965L250.1 32.0054L248.488 42.4334L245.672 43.0778H245.677Z" fill="white"/>
<path d="M255.164 40.9082L253.029 39.5781L252.395 36.8351L253.889 34.4587L259.806 33.1049L259.575 32.0881L258.318 31.3019L252.81 32.5611L252.413 30.8349L258.733 29.3865L261.241 30.9531L263.115 39.0875L261.686 39.4126L261.454 38.3958L261.087 38.4786L260.055 39.785L255.158 40.9082H255.164ZM255.579 38.9929L259.148 38.1771L260.559 36.38L260.203 34.837L255.105 36.0016L254.399 37.1248L254.701 38.449L255.579 38.9988V38.9929Z" fill="white"/>
<path d="M267.093 29.2919L266.073 30.9176L267.01 34.9848L268.64 36.0016L274.35 34.6951L274.747 36.4213L271.688 37.1189L271.611 37.716L271.646 37.8815L272.465 37.6923L273.722 38.4786L274.024 39.8028L273.235 41.056L270.176 41.7536L269.897 40.5358L272.346 39.9742L272.506 39.7259L272.388 39.2175L272.139 39.0638L270.301 39.4835L270.158 38.8746L270.259 37.4618L268.22 37.9288L265.338 36.1257L264.075 30.6339L265.884 27.7608L272.411 26.2652L272.809 27.9914L267.099 29.2978L267.093 29.2919Z" fill="white"/>
<path d="M275.299 24.2021L274.854 22.269L275.72 20.8916L277.961 20.3773L279.805 21.7724L280.599 21.5891L280.836 21.2167L280.51 19.792L282.04 19.4432L282.485 21.3763L281.619 22.7537L279.378 23.268L277.534 21.8729L276.739 22.0562L276.502 22.4286L276.828 23.8533L275.299 24.2021ZM278.109 35.6528L275.975 34.3227L275.34 31.5797L276.834 29.2033L282.751 27.8495L282.52 26.8327L281.269 26.0465L275.761 27.3057L275.364 25.5795L281.69 24.1311L284.198 25.6977L286.072 33.8321L284.643 34.1572L284.411 33.1404L284.044 33.2232L283.012 34.5296L278.115 35.6528H278.109ZM278.53 33.7375L282.099 32.9217L283.51 31.1246L283.155 29.5816L278.056 30.7462L277.35 31.8694L277.652 33.1936L278.53 33.7434V33.7375Z" fill="white"/>
<path d="M291.164 32.6675L288.283 30.8645L287.02 25.3726L288.828 22.4996L294.437 21.2167L297.319 23.0198L298.581 28.5116L296.773 31.3847L291.164 32.6675ZM291.579 30.7521L295.558 29.8418L296.577 28.2161L295.641 24.1489L294.01 23.1321L290.032 24.0425L289.012 25.6682L289.949 29.7353L291.579 30.7521Z" fill="white"/>
<path d="M194.5 110.293C192.496 110.754 190.397 110.494 188.565 109.571L182.612 106.562C180.318 105.404 178.652 103.305 178.047 100.816L173.274 81.178C172.717 78.8843 173.114 76.4665 174.365 74.4684L177.94 68.7814C179.179 66.8128 181.148 65.4177 183.418 64.8975L203.049 60.4047C205.433 59.8608 207.935 60.3278 209.956 61.6993L215.595 65.53C217.457 66.7951 218.755 68.7223 219.235 70.9155L223.474 90.4238C223.978 92.7411 223.516 95.1589 222.2 97.1334L218.755 102.294C217.51 104.156 215.601 105.475 213.413 105.977L194.494 110.304L194.5 110.293Z" fill="white"/>
<path d="M205.017 68.9292L185.387 73.422L181.812 79.1149L186.584 98.7473L192.537 101.756L211.45 97.429L214.901 92.2682L210.656 72.7599L205.017 68.9292Z" fill="#FE5E00"/>
<path d="M21.4688 150.935C19.4648 151.396 17.3659 151.136 15.5339 150.214L9.58123 147.205C7.29265 146.046 5.62069 143.947 5.01593 141.459L0.249053 121.82C-0.308268 119.527 0.0889716 117.109 1.33998 115.111L4.91514 109.424C6.15429 107.455 8.12271 106.06 10.3935 105.54L30.0243 101.047C32.4077 100.503 34.9097 100.97 36.9315 102.342L42.5699 106.172C44.4316 107.437 45.736 109.365 46.2103 111.558L50.4495 131.066C50.9535 133.383 50.491 135.801 49.1748 137.776L45.7301 142.937C44.485 144.799 42.5759 146.117 40.3881 146.619L21.4688 150.947V150.935Z" fill="white"/>
<path d="M31.9867 109.577L12.3559 114.07L8.78076 119.757L13.5536 139.395L19.5062 142.404L38.4196 138.077L41.8703 132.916L37.6251 113.408L31.9867 109.577Z" fill="#795BDF"/>
<path d="M58.9518 141.943C56.9478 142.404 54.8489 142.144 53.0169 141.222L47.0642 138.213C44.7756 137.054 43.1037 134.956 42.4989 132.467L37.7261 112.829C37.1688 110.535 37.566 108.117 38.817 106.119L42.3922 100.432C43.6313 98.4635 45.5998 97.0684 47.8705 96.5482L165.353 69.6622C167.736 69.1184 170.238 69.5854 172.26 70.9569L177.898 74.7876C179.76 76.0527 181.065 77.9799 181.539 80.1731L185.778 99.6813C186.282 101.999 185.82 104.417 184.503 106.391L181.059 111.552C179.814 113.414 177.904 114.732 175.717 115.229L58.9458 141.949L58.9518 141.943Z" fill="white"/>
<path d="M167.327 78.1927L49.8388 105.079L46.2637 110.766L51.0365 130.404L56.9892 133.413L173.76 106.687L177.205 101.526L172.965 82.0175L167.327 78.1927Z" fill="#2135A6"/>
<path d="M27.7 139.762C24.2553 140.548 20.8165 139.2 18.7828 136.581C15.5338 135.902 12.8183 133.407 12.0238 129.966L11.6562 128.376C10.8677 124.942 12.2195 121.513 14.846 119.485C15.5279 116.246 18.0299 113.538 21.4805 112.746L23.0754 112.379C26.5201 111.593 29.9589 112.941 31.9926 115.56C35.2416 116.24 37.9571 118.734 38.7516 122.175L39.1192 123.765C39.9077 127.2 38.5559 130.628 35.9294 132.656C35.2476 135.896 32.7455 138.603 29.2949 139.395L27.7 139.762Z" fill="white"/>
<path d="M25.7376 131.226L24.7771 127.046L20.5854 128.004L20.2178 126.414L24.4095 125.456L23.4491 121.276L25.0439 120.91L26.0044 125.089L30.1962 124.132L30.5638 125.722L26.372 126.68L27.3325 130.859L25.7376 131.226Z" fill="white"/>
<path d="M200.731 99.1138C197.286 99.9001 193.847 98.5522 191.814 95.9334C188.565 95.2536 185.849 92.7589 185.055 89.3183L184.687 87.7281C183.898 84.2935 185.25 80.8647 187.877 78.8371C188.559 75.5975 191.061 72.89 194.511 72.0979L196.106 71.7313C199.551 70.9451 202.99 72.2929 205.023 74.9118C208.272 75.5916 210.988 78.0863 211.782 81.5269L212.15 83.1171C212.938 86.5517 211.587 89.9804 208.96 92.0081C208.278 95.2477 205.776 97.9552 202.326 98.7473L200.731 99.1138Z" fill="white"/>
<path d="M198.768 90.5834L197.808 86.4039L193.616 87.3616L193.249 85.7714L197.44 84.8137L196.48 80.6342L198.075 80.2677L199.035 84.4472L203.227 83.4895L203.595 85.0797L199.403 86.0374L200.363 90.2169L198.768 90.5834Z" fill="white"/>
<path d="M63.6831 122.979L62.0527 121.962L60.4163 114.845L58.3767 115.312L57.9795 113.585L60.0191 113.118L59.4084 110.476L61.2463 110.056L61.857 112.699L65.527 111.859L65.9243 113.585L62.2543 114.425L63.7306 120.833L64.1041 121.07L67.5725 120.277L67.9698 122.004L63.6891 122.985L63.6831 122.979Z" fill="white"/>
<path d="M72.1497 121.04L69.2682 119.237L68.0054 113.745L69.8137 110.872L75.2209 109.636L78.1024 111.44L78.968 115.199L70.709 117.091L70.9402 118.108L72.5707 119.125L78.7901 117.7L79.1874 119.426L72.1497 121.034V121.04ZM70.3058 115.359L76.7328 113.887L76.4304 112.563L74.8 111.546L71.0291 112.409L70.0094 114.035L70.3117 115.359H70.3058Z" fill="white"/>
<path d="M84.6893 118.167L81.8078 116.364L80.5449 110.872L82.3532 107.999L88.881 106.503L89.2783 108.229L83.5687 109.536L82.5489 111.162L83.4857 115.229L85.1161 116.246L90.8257 114.939L91.223 116.665L84.6952 118.161L84.6893 118.167Z" fill="white"/>
<path d="M93.7667 116.092L91.4248 105.924L92.8537 105.599L93.0434 106.415L93.411 106.332L94.1996 105.297L98.9724 104.204L101.605 105.847L103.455 113.881L101.617 114.301L99.9329 106.982L98.5514 106.119L95.1067 106.905L93.9328 108.436L95.5988 115.678L93.7608 116.098L93.7667 116.092Z" fill="white"/>
<path d="M108.554 112.71L105.672 110.907L104.409 105.416L106.218 102.543L111.826 101.26L114.708 103.063L115.971 108.555L114.162 111.428L108.554 112.71ZM108.974 110.795L112.953 109.885L113.973 108.259L113.036 104.192L111.405 103.175L107.427 104.085L106.407 105.711L107.344 109.778L108.974 110.795Z" fill="white"/>
<path d="M119.771 110.139L116.889 97.63L114.85 98.097L114.453 96.3708L118.33 95.4841L121.609 109.719L119.771 110.139Z" fill="white"/>
<path d="M126.909 108.507L124.028 106.704L122.765 101.212L124.573 98.3394L130.182 97.0566L133.064 98.8596L134.327 104.351L132.518 107.225L126.909 108.507ZM127.33 106.592L131.309 105.682L132.329 104.056L131.392 99.9887L129.761 98.9719L125.783 99.8823L124.763 101.508L125.7 105.575L127.33 106.592Z" fill="white"/>
<path d="M139.17 109.985L138.773 108.253L145.402 106.734L145.953 105.859L145.414 103.518L145.046 103.601L144.352 104.511L139.864 105.54L136.983 103.737L135.72 98.2448L137.528 95.3718L145.076 93.6456L147.957 106.155L146.623 108.283L139.176 109.985H139.17ZM140.279 103.63L143.439 102.909L144.844 101.088L143.629 95.8034L138.732 96.9206L137.712 98.5463L138.649 102.614L140.279 103.63Z" fill="white"/>
<path d="M147.56 90.9381L147.092 88.9045L149.131 88.4375L149.6 90.4711L147.56 90.9381ZM150.471 103.116L148.129 92.948L149.967 92.5283L152.309 102.696L150.471 103.116Z" fill="white"/>
<path d="M156.59 101.715L154.456 100.385L153.821 97.6418L155.315 95.2653L161.232 93.9116L161.001 92.8948L159.744 92.1085L154.236 93.3677L153.839 91.6415L160.159 90.1932L162.667 91.7597L164.541 99.8941L163.112 100.219L162.875 99.2024L162.507 99.2852L161.476 100.592L156.578 101.709L156.59 101.715ZM157.005 99.7995L160.574 98.9837L161.985 97.1866L161.63 95.6378L156.531 96.8023L155.825 97.9255L156.128 99.2497L157.005 99.7995Z" fill="white"/>
<path d="M230.761 102.625C228.757 103.086 226.658 102.826 224.826 101.904L218.873 98.8951C216.579 97.7364 214.913 95.6378 214.308 93.149L209.535 73.5107C208.978 71.217 209.375 68.7992 210.626 66.801L214.201 61.1141C215.44 59.1455 217.409 57.7504 219.68 57.2302L327.373 32.5847C329.757 32.0409 332.259 32.5079 334.28 33.8794L339.919 37.7101C341.781 38.9752 343.085 40.9023 343.559 43.0955L347.798 62.6038C348.302 64.9212 347.84 67.339 346.524 69.3135L343.079 74.4743C341.834 76.3364 339.925 77.6547 337.737 78.1572L230.761 102.637V102.625Z" fill="white"/>
<path d="M329.335 41.1152L221.648 65.7606L218.073 71.4476L222.846 91.0859L228.798 94.0949L335.774 69.6091L339.219 64.4541L334.98 44.94L329.335 41.1152Z" fill="#9EDCFA"/>
<path d="M235.492 83.6609L232.611 81.8579L231.348 76.366L233.156 73.4929L239.684 71.9973L240.081 73.7235L234.371 75.03L233.352 76.6556L234.288 80.7228L235.919 81.7396L241.628 80.4332L242.026 82.1593L235.498 83.655L235.492 83.6609Z" fill="#131C50"/>
<path d="M246.301 81.184L243.419 79.3809L242.156 73.8891L243.965 71.016L249.573 69.7332L252.455 71.5363L253.718 77.0281L251.909 79.9012L246.301 81.184ZM246.716 79.2686L250.694 78.3582L251.714 76.7325L250.777 72.6654L249.146 71.6486L245.168 72.559L244.148 74.1846L245.085 78.2518L246.716 79.2686Z" fill="#131C50"/>
<path d="M257.109 78.7129L254.767 68.545L256.196 68.2198L256.386 69.0356L256.753 68.9529L257.542 67.9184L262.315 66.8247L264.947 68.4681L266.797 76.502L264.959 76.9217L263.275 69.6032L261.894 68.7401L258.449 69.5263L257.275 71.0574L258.941 78.2991L257.103 78.7188L257.109 78.7129Z" fill="#131C50"/>
<path d="M271.896 75.3256L269.014 73.5226L267.751 68.0307L269.56 65.1576L274.967 63.9221L277.848 65.7252L278.714 69.4849L270.455 71.3766L270.686 72.3934L272.317 73.4102L278.536 71.9855L278.933 73.7117L271.896 75.3197V75.3256ZM270.052 69.6505L276.479 68.1785L276.177 66.8543L274.546 65.8375L270.769 66.7006L269.75 68.3263L270.052 69.6505Z" fill="#131C50"/>
<path d="M281.181 73.2033L281.038 72.5944L283.665 67.2208L279.159 63.6088L279.017 62.9999L280.855 62.5802L284.536 65.6128L284.863 65.536L286.914 61.1909L288.627 60.8008L288.77 61.4097L286.291 66.4937L291.052 70.3066L291.195 70.9155L289.357 71.3352L285.384 68.072L285.1 68.1371L282.894 72.8191L281.181 73.2092V73.2033Z" fill="#131C50"/>
<path d="M295.274 69.9756L292.392 68.1725L291.129 62.6807L292.938 59.8076L298.547 58.5248L301.428 60.3279L302.691 65.8197L300.883 68.6928L295.274 69.9756ZM291.71 58.6963L291.266 56.7632L292.131 55.3858L294.373 54.8715L296.216 56.2666L297.011 56.0833L297.248 55.705L296.922 54.2803L298.452 53.9315L298.896 55.8646L298.031 57.242L295.79 57.7563L293.946 56.3612L293.151 56.5444L292.914 56.9169L293.24 58.3416L291.71 58.6903V58.6963ZM295.689 68.0602L299.667 67.1498L300.687 65.5242L299.75 61.457L298.12 60.4402L294.141 61.3506L293.122 62.9763L294.058 67.0434L295.689 68.0602Z" fill="#131C50"/>
<path d="M308.222 67.0139L305.341 65.2108L304.078 59.719L305.886 56.8459L311.294 55.6104L314.175 57.4135L315.041 61.1732L306.782 63.0649L307.019 64.0817L308.649 65.0985L314.869 63.6738L315.266 65.4L308.228 67.008L308.222 67.0139ZM306.379 61.3328L312.806 59.8609L312.503 58.5367L310.873 57.5199L307.102 58.383L306.082 60.0086L306.384 61.3328H306.379Z" fill="#131C50"/>
<path d="M318.219 64.7261L317.821 62.9999L324.45 61.4806L325.001 60.6057L324.747 59.4884L323.869 58.9386L318.871 60.0796L316.742 58.7495L316.179 56.308L317.513 54.1857L324.551 52.5778L324.948 54.3039L318.729 55.7286L318.177 56.6036L318.408 57.6203L319.286 58.1701L324.284 57.0292L326.413 58.3593L327 60.9013L325.666 63.0235L318.219 64.7261Z" fill="#131C50"/>
<path d="M81.3575 175.782C79.3535 176.243 77.2547 175.983 75.4226 175.06L69.47 172.051C67.1814 170.893 65.5094 168.794 64.9047 166.305L60.1319 146.667C59.5745 144.373 59.9718 141.955 61.2228 139.957L64.798 134.27C66.0371 132.302 68.0055 130.907 70.2763 130.386L247.499 89.827C249.882 89.2832 252.384 89.7502 254.406 91.1217L260.044 94.9524C261.906 96.2175 263.204 98.1447 263.685 100.338L267.924 119.846C268.428 122.163 267.965 124.581 266.649 126.556L263.204 131.717C261.959 133.579 260.05 134.897 257.863 135.4L81.3516 175.793L81.3575 175.782Z" fill="white"/>
<path d="M249.467 98.3515L72.2446 138.911L68.6694 144.598L73.4363 164.236L79.389 167.245L255.9 126.851L259.345 121.69L255.105 102.182L249.467 98.3515Z" fill="#131C50"/>
<path d="M275.821 130.977C273.817 131.438 271.718 131.178 269.886 130.256L263.933 127.247C261.639 126.088 259.973 123.99 259.368 121.501L254.595 101.863C254.038 99.569 254.435 97.1512 255.686 95.1531L259.261 89.4661C260.5 87.4975 262.469 86.1024 264.74 85.5822L284.37 81.0894C286.754 80.5455 289.256 81.0125 291.278 82.384L296.916 86.2147C298.778 87.4798 300.076 89.407 300.556 91.6002L304.796 111.108C305.3 113.426 304.837 115.844 303.521 117.818L300.076 122.979C298.831 124.841 296.922 126.159 294.734 126.656L275.815 130.983L275.821 130.977Z" fill="white"/>
<path d="M286.339 89.614L266.708 94.1068L263.133 99.7937L267.9 119.432L273.852 122.441L292.772 118.114L296.216 112.953L291.977 93.4447L286.339 89.614Z" fill="#795BDF"/>
<path d="M279.325 119.574C277.659 119.958 275.892 119.852 274.244 119.225C271.499 118.185 269.46 115.85 268.801 113.001L268.452 111.469C268.244 110.559 268.185 109.637 268.262 108.738C267.799 107.964 267.45 107.107 267.236 106.196L266.886 104.665C266.228 101.804 267.052 98.8127 269.074 96.6845C270.284 95.4135 271.819 94.5563 273.479 94.178C274.606 93.9179 275.78 93.8824 276.948 94.0834L285.895 95.6382C289.375 96.2411 292.156 98.8718 292.944 102.306L293.294 103.838C294.088 107.284 292.725 110.872 289.831 112.924L282.45 118.173C281.495 118.853 280.428 119.326 279.319 119.58L279.325 119.574Z" fill="white"/>
<path d="M275.442 102.708L284.389 104.263L284.738 105.794L277.357 111.044L277.007 109.513L282.889 105.422L275.792 104.24L275.442 102.708Z" fill="white"/>
<path d="M82.2879 158.667L79.4064 156.864L78.1436 151.373L79.9519 148.5L85.6615 147.193L84.7247 143.126L86.5627 142.706L89.8414 156.941L88.4125 157.266L88.1813 156.25L87.7722 156.344L86.782 157.639L82.2938 158.667H82.2879ZM82.7029 156.752L85.8631 156.031L87.2682 154.21L86.0528 148.925L81.1555 150.048L80.1357 151.674L81.0725 155.741L82.7029 156.758V156.752Z" fill="white"/>
<path d="M95.136 155.724L92.2546 153.92L90.9917 148.429L92.8 145.556L98.2072 144.32L101.089 146.123L101.954 149.883L93.6953 151.775L93.9325 152.791L95.5629 153.808L101.782 152.383L102.18 154.11L95.142 155.718L95.136 155.724ZM93.2921 150.042L99.7191 148.571L99.4167 147.246L97.7863 146.23L94.0155 147.093L92.9957 148.718L93.2981 150.042H93.2921Z" fill="white"/>
<path d="M105.132 153.436L104.735 151.709L111.363 150.19L111.915 149.315L111.66 148.198L110.782 147.648L105.784 148.789L103.65 147.459L103.086 145.018L104.42 142.895L111.458 141.287L111.855 143.014L105.636 144.438L105.084 145.313L105.316 146.33L106.193 146.88L111.191 145.739L113.326 147.069L113.913 149.611L112.579 151.733L105.132 153.436Z" fill="white"/>
<path d="M119 150.261L116.119 148.458L114.856 142.966L116.664 140.093L122.071 138.858L124.953 140.661L125.819 144.421L117.56 146.312L117.797 147.329L119.427 148.346L125.647 146.921L126.044 148.647L119.006 150.255L119 150.261ZM117.156 144.586L123.583 143.114L123.281 141.79L121.651 140.773L117.88 141.636L116.86 143.262L117.162 144.586H117.156Z" fill="white"/>
<path d="M129.4 147.885L127.058 137.717L128.486 137.392L128.676 138.208L129.044 138.125L129.832 137.09L134.605 135.997L137.238 137.64L139.087 145.674L137.249 146.094L135.566 138.775L134.184 137.912L130.739 138.698L129.566 140.229L131.232 147.471L129.394 147.891L129.4 147.885Z" fill="white"/>
<path d="M144.66 144.391L138.625 135.713L138.482 135.104L140.237 134.702L145.526 142.375L145.87 142.298L147.275 133.094L148.947 132.71L149.089 133.319L147.477 143.753L144.66 144.397V144.391Z" fill="white"/>
<path d="M155.267 141.961L152.386 140.158L151.123 134.666L152.931 131.793L158.54 130.511L161.422 132.314L162.685 137.805L160.876 140.679L155.267 141.961ZM155.682 140.046L159.661 139.136L160.681 137.51L159.744 133.443L158.113 132.426L154.135 133.336L153.115 134.962L154.052 139.029L155.682 140.046Z" fill="white"/>
<path d="M166.485 139.396L163.603 126.887L161.564 127.354L161.167 125.628L165.044 124.741L168.323 138.976L166.485 139.396Z" fill="white"/>
<path d="M174.092 137.658L168.056 128.979L167.914 128.371L169.669 127.969L174.957 135.642L175.301 135.565L176.706 126.361L178.378 125.976L178.52 126.585L176.908 137.019L174.092 137.664V137.658Z" fill="white"/>
<path d="M179.641 123.541L179.173 121.507L181.212 121.04L181.681 123.074L179.641 123.541ZM182.552 135.719L180.21 125.551L182.048 125.131L184.39 135.299L182.552 135.719Z" fill="white"/>
<path d="M187.45 134.601L185.108 124.433L186.537 124.108L186.727 124.924L187.094 124.841L187.883 123.807L191.636 122.95L193.118 123.872L193.545 123.771L194.719 122.24L198.472 121.383L201.104 123.026L202.954 131.06L201.116 131.48L199.432 124.162L198.051 123.298L195.626 123.854L194.452 125.367L196.124 132.627L194.286 133.047L192.602 125.728L191.221 124.865L188.796 125.421L187.622 126.934L189.294 134.193L187.456 134.613L187.45 134.601Z" fill="white"/>
<path d="M208.047 129.884L205.165 128.081L203.902 122.589L205.711 119.716L211.118 118.48L213.999 120.283L214.865 124.043L206.606 125.935L206.837 126.952L208.468 127.969L214.687 126.544L215.084 128.27L208.047 129.878V129.884ZM206.209 124.203L212.636 122.731L212.333 121.407L210.703 120.39L206.932 121.253L205.912 122.879L206.215 124.203H206.209Z" fill="white"/>
<path d="M218.452 127.502L216.11 117.334L217.539 117.008L217.729 117.824L218.097 117.742L218.885 116.707L223.658 115.613L226.29 117.257L228.14 125.291L226.302 125.71L224.618 118.392L223.237 117.529L219.792 118.315L218.618 119.846L220.284 127.088L218.446 127.507L218.452 127.502Z" fill="white"/>
<path d="M233.239 124.12L231.608 123.103L229.972 115.986L227.932 116.453L227.535 114.727L229.575 114.26L228.964 111.617L230.802 111.197L231.413 113.84L235.083 113L235.48 114.727L231.81 115.566L233.286 121.974L233.66 122.211L237.128 121.419L237.525 123.145L233.245 124.126L233.239 124.12Z" fill="white"/>
<path d="M241.705 122.181L238.824 120.378L237.561 114.886L239.369 112.013L244.978 110.73L247.86 112.533L249.122 118.025L247.314 120.898L241.705 122.181ZM242.12 120.266L246.099 119.355L247.119 117.73L246.182 113.663L244.551 112.646L240.573 113.556L239.553 115.182L240.49 119.249L242.12 120.266Z" fill="white"/>
<path d="M43.8387 68.1016L24.2079 72.5944L20.6387 78.2813L25.4056 97.9197L31.3582 100.929L50.2775 96.5954L53.7222 91.4346L49.483 71.9264L43.8387 68.1016Z" fill="#131C50"/>
<path d="M184.45 35.3099L164.825 39.8027L161.25 45.4897L166.017 65.128L171.97 68.137L190.889 63.8097L194.334 58.6489L190.094 39.1406L184.45 35.3099Z" fill="#9EDCFA"/>
<path d="M148.983 43.4266L61.6079 63.4255L58.0327 69.1125L62.8055 88.7508L68.7582 91.7598L155.422 71.9264L158.866 66.7656L154.627 47.2573L148.983 43.4266Z" fill="#FE5E00"/>
<path d="M300.485 8.75507L200.09 31.7334L196.515 37.4204L201.288 57.0587L207.241 60.0618L306.924 37.2549L310.369 32.094L306.13 12.5858L300.485 8.75507Z" fill="#795BDF"/>
<path d="M39.6232 79.6647L39.973 81.1958L34.1033 85.3457L41.1884 86.4689L41.5382 88L32.5974 86.4867L32.2476 84.9556L39.6172 79.6647H39.6232Z" fill="white"/>
<path d="M172.948 51.9393L172.58 50.349L181.96 48.2031L182.327 49.7933L172.948 51.9393ZM173.819 55.7168L173.452 54.1265L182.831 51.9806L183.199 53.5709L173.819 55.7168Z" fill="#131C50"/>
<path d="M77.9837 81.4559L75.6773 80.0134L74.3315 74.155L72.2919 74.6221L71.7168 72.1215L73.7564 71.6544L73.1279 68.9292L76.371 68.1902L76.9995 70.9155L80.4857 70.1174L81.0608 72.618L77.5746 73.4161L78.6833 78.234L79.0094 78.435L82.3948 77.6606L83.0055 80.3031L77.9896 81.45L77.9837 81.4559Z" fill="white"/>
<path d="M84.8553 79.8833L82.5015 69.6563L85.0924 69.0651L85.2821 69.8809L85.6675 69.7922L86.4383 68.7577L90.1913 67.9005L90.802 70.543L87.3158 71.3411L86.5332 72.3342L88.0984 79.1444L84.8553 79.8892V79.8833Z" fill="white"/>
<path d="M91.045 66.0029L90.4937 63.6028L93.8198 62.8402L94.3712 65.2403L91.045 66.0029ZM93.8139 77.832L91.4601 67.605L94.7032 66.866L97.057 77.0931L93.8139 77.8379V77.832Z" fill="white"/>
<path d="M100.217 76.3659L97.5135 64.6137L95.474 65.0807L94.9048 62.5978L100.187 61.3918L103.466 75.627L100.223 76.3659H100.217Z" fill="white"/>
<path d="M106.354 74.959L103.075 60.7239L106.318 59.979L107.38 64.596L107.581 64.5487L108.198 63.7683L112.52 62.7811L115.307 64.5191L117.139 72.4879L113.896 73.2328L112.307 66.3399L111.453 65.8078L108.886 66.399L108.038 67.469L109.591 74.22L106.348 74.9649L106.354 74.959Z" fill="white"/>
<path d="M121.099 71.5894L118.793 70.147L118.194 67.5459L119.688 65.1694L125.356 63.8689L125.208 63.2186L124.479 62.7457L118.846 64.0344L118.259 61.4747L125.623 59.7899L128.208 61.4037L130.081 69.5381L127.49 70.1292L127.301 69.2957L126.975 69.3726L126.168 70.4366L121.111 71.5953L121.099 71.5894ZM122.273 68.7518L125.332 68.0543L126.097 67.0848L125.836 65.9438L121.982 66.8247L121.591 67.4513L121.822 68.4681L122.273 68.7518Z" fill="white"/>
<path d="M132.524 68.9705L131.961 66.5291L138.506 65.0334L138.791 64.5841L138.625 63.8748L138.168 63.5733L133.336 64.6787L131.036 63.26L130.431 60.6352L131.884 58.3533L139.757 56.5503L140.321 58.9918L134.184 60.3987L133.9 60.848L134.066 61.5574L134.516 61.8412L139.348 60.7357L141.655 62.1781L142.253 64.7792L140.807 67.0788L132.524 68.9765V68.9705Z" fill="white"/>
<path d="M209.666 38.4727L209.197 36.4391L211.237 35.972L211.705 38.0056L209.666 38.4727ZM212.577 50.6505L210.235 40.4826L212.073 40.0629L214.415 50.2308L212.577 50.6505Z" fill="white"/>
<path d="M217.474 49.5332L215.132 39.3653L216.561 39.0402L216.75 39.856L217.118 39.7732L217.913 38.7387L222.685 37.645L225.318 39.2884L227.168 47.3223L225.33 47.742L223.646 40.4235L222.264 39.5604L218.82 40.3466L217.646 41.8777L219.312 49.1194L217.474 49.5391V49.5332Z" fill="white"/>
<path d="M232.261 46.1459L229.38 44.3429L228.117 38.851L229.925 35.978L235.534 34.6952L238.415 36.4982L239.678 41.9901L237.87 44.8631L232.261 46.1459ZM232.676 44.2306L236.654 43.3202L237.674 41.6945L236.737 37.6273L235.107 36.6105L231.129 37.5209L230.109 39.1466L231.046 43.2138L232.676 44.2306Z" fill="white"/>
<path d="M245.678 43.0778L239.642 34.3996L239.5 33.7907L241.255 33.3887L246.544 41.0619L246.887 40.9851L248.287 31.7807L249.959 31.3965L250.101 32.0054L248.488 42.4334L245.672 43.0778H245.678Z" fill="white"/>
<path d="M255.164 40.9082L253.03 39.5781L252.396 36.8351L253.89 34.4587L259.807 33.1049L259.575 32.0881L258.319 31.3019L252.811 32.5611L252.413 30.8349L258.734 29.3865L261.241 30.9531L263.115 39.0875L261.686 39.4126L261.455 38.3958L261.087 38.4786L260.056 39.785L255.158 40.9082H255.164ZM255.579 38.9929L259.149 38.1771L260.56 36.38L260.204 34.837L255.105 36.0016L254.399 37.1248L254.702 38.449L255.579 38.9988V38.9929Z" fill="white"/>
<path d="M267.094 29.2919L266.074 30.9176L267.011 34.9848L268.641 36.0016L274.351 34.6951L274.748 36.4213L271.688 37.1189L271.611 37.716L271.647 37.8815L272.465 37.6923L273.722 38.4786L274.024 39.8028L273.236 41.056L270.177 41.7536L269.898 40.5358L272.347 39.9742L272.507 39.7259L272.388 39.2175L272.139 39.0638L270.301 39.4835L270.159 38.8746L270.26 37.4618L268.22 37.9288L265.339 36.1257L264.076 30.6339L265.884 27.7608L272.412 26.2652L272.809 27.9914L267.099 29.2978L267.094 29.2919Z" fill="white"/>
<path d="M275.299 24.2021L274.854 22.269L275.72 20.8916L277.961 20.3773L279.805 21.7724L280.6 21.5891L280.837 21.2167L280.511 19.792L282.04 19.4432L282.485 21.3763L281.619 22.7537L279.378 23.268L277.534 21.8729L276.74 22.0562L276.503 22.4286L276.829 23.8533L275.299 24.2021ZM278.11 35.6528L275.975 34.3227L275.341 31.5797L276.835 29.2033L282.752 27.8495L282.521 26.8327L281.27 26.0465L275.762 27.3057L275.364 25.5795L281.691 24.1311L284.199 25.6977L286.072 33.8321L284.643 34.1572L284.412 33.1404L284.044 33.2232L283.013 34.5296L278.115 35.6528H278.11ZM278.53 33.7375L282.1 32.9217L283.511 31.1246L283.155 29.5816L278.056 30.7462L277.351 31.8694L277.653 33.1936L278.53 33.7434V33.7375Z" fill="white"/>
<path d="M291.165 32.6675L288.283 30.8645L287.021 25.3726L288.829 22.4996L294.438 21.2167L297.319 23.0198L298.582 28.5116L296.774 31.3847L291.165 32.6675ZM291.58 30.7521L295.558 29.8418L296.578 28.2161L295.641 24.1489L294.011 23.1321L290.032 24.0425L289.013 25.6682L289.949 29.7353L291.58 30.7521Z" fill="white"/>
<path d="M205.017 68.9291L185.386 73.4219L181.811 79.1148L186.584 98.7472L192.537 101.756L211.45 97.4289L214.901 92.2681L210.655 72.7599L205.017 68.9291Z" fill="#FE5E00"/>
<path d="M31.9867 109.577L12.3559 114.07L8.78076 119.757L13.5536 139.395L19.5062 142.404L38.4196 138.077L41.8703 132.916L37.6251 113.408L31.9867 109.577Z" fill="#795BDF"/>
<path d="M167.327 78.1926L49.8388 105.079L46.2637 110.766L51.0365 130.404L56.9892 133.413L173.76 106.687L177.205 101.526L172.965 82.0174L167.327 78.1926Z" fill="#2135A6"/>
<path d="M25.7376 131.226L24.7771 127.046L20.5854 128.004L20.2178 126.413L24.4095 125.456L23.4491 121.276L25.0439 120.91L26.0044 125.089L30.1962 124.132L30.5638 125.722L26.372 126.68L27.3325 130.859L25.7376 131.226Z" fill="white"/>
<path d="M198.768 90.5833L197.807 86.4038L193.616 87.3615L193.248 85.7713L197.44 84.8136L196.479 80.6341L198.074 80.2676L199.035 84.4471L203.226 83.4894L203.594 85.0796L199.402 86.0373L200.363 90.2168L198.768 90.5833Z" fill="white"/>
<path d="M63.6827 122.979L62.0522 121.962L60.4158 114.845L58.3762 115.312L57.979 113.585L60.0186 113.118L59.4079 110.476L61.2459 110.056L61.8565 112.699L65.5266 111.859L65.9238 113.585L62.2538 114.425L63.7301 120.833L64.1036 121.069L67.5721 120.277L67.9693 122.003L63.6886 122.985L63.6827 122.979Z" fill="white"/>
<path d="M72.1492 121.04L69.2678 119.237L68.0049 113.745L69.8132 110.872L75.2204 109.636L78.1019 111.439L78.9675 115.199L70.7085 117.091L70.9397 118.108L72.5702 119.125L78.7897 117.7L79.1869 119.426L72.1492 121.034V121.04ZM70.3053 115.359L76.7323 113.887L76.4299 112.563L74.7995 111.546L71.0287 112.409L70.0089 114.035L70.3112 115.359H70.3053Z" fill="white"/>
<path d="M84.6888 118.167L81.8073 116.364L80.5444 110.872L82.3528 107.999L88.8805 106.503L89.2778 108.229L83.5682 109.536L82.5484 111.162L83.4852 115.229L85.1157 116.246L90.8252 114.939L91.2225 116.665L84.6947 118.161L84.6888 118.167Z" fill="white"/>
<path d="M93.7663 116.092L91.4243 105.924L92.8532 105.599L93.0429 106.415L93.4105 106.332L94.1991 105.297L98.9719 104.204L101.604 105.847L103.454 113.881L101.616 114.301L99.9324 106.982L98.5509 106.119L95.1062 106.905L93.9323 108.436L95.5983 115.678L93.7603 116.098L93.7663 116.092Z" fill="white"/>
<path d="M108.553 112.71L105.672 110.907L104.409 105.416L106.217 102.542L111.826 101.26L114.707 103.063L115.97 108.555L114.162 111.428L108.553 112.71ZM108.974 110.795L112.952 109.885L113.972 108.259L113.035 104.192L111.405 103.175L107.427 104.085L106.407 105.711L107.344 109.778L108.974 110.795Z" fill="white"/>
<path d="M119.77 110.139L116.889 97.6299L114.849 98.0969L114.452 96.3707L118.33 95.484L121.608 109.719L119.77 110.139Z" fill="white"/>
<path d="M126.909 108.507L124.028 106.704L122.765 101.212L124.573 98.3393L130.182 97.0565L133.063 98.8596L134.326 104.351L132.518 107.224L126.909 108.507ZM127.33 106.592L131.308 105.682L132.328 104.056L131.391 99.9887L129.761 98.9719L125.782 99.8823L124.763 101.508L125.699 105.575L127.33 106.592Z" fill="white"/>
<path d="M139.17 109.985L138.773 108.253L145.401 106.734L145.953 105.859L145.413 103.518L145.045 103.601L144.352 104.511L139.864 105.54L136.982 103.737L135.719 98.2448L137.528 95.3718L145.075 93.6456L147.957 106.155L146.623 108.283L139.176 109.985H139.17ZM140.279 103.63L143.439 102.909L144.844 101.088L143.628 95.8033L138.731 96.9206L137.711 98.5463L138.648 102.613L140.279 103.63Z" fill="white"/>
<path d="M147.559 90.938L147.091 88.9045L149.13 88.4374L149.599 90.471L147.559 90.938ZM150.47 103.116L148.128 92.948L149.966 92.5283L152.308 102.696L150.47 103.116Z" fill="white"/>
<path d="M156.59 101.715L154.455 100.385L153.821 97.6417L155.315 95.2653L161.232 93.9115L161.001 92.8947L159.744 92.1085L154.236 93.3676L153.839 91.6415L160.159 90.1931L162.667 91.7597L164.54 99.894L163.111 100.219L162.874 99.2024L162.507 99.2851L161.475 100.592L156.578 101.709L156.59 101.715ZM157.005 99.7995L160.574 98.9837L161.985 97.1865L161.629 95.6377L156.53 96.8023L155.825 97.9255L156.127 99.2497L157.005 99.7995Z" fill="white"/>
<path d="M329.335 41.1151L221.648 65.7605L218.073 71.4475L222.846 91.0858L228.798 94.0948L335.774 69.609L339.219 64.4541L334.98 44.9399L329.335 41.1151Z" fill="#9EDCFA"/>
<path d="M235.492 83.6608L232.611 81.8578L231.348 76.3659L233.156 73.4929L239.684 71.9973L240.081 73.7234L234.371 75.0299L233.352 76.6556L234.288 80.7228L235.919 81.7396L241.628 80.4331L242.026 82.1593L235.498 83.6549L235.492 83.6608Z" fill="#131C50"/>
<path d="M246.301 81.1839L243.419 79.3809L242.156 73.889L243.965 71.016L249.573 69.7332L252.455 71.5362L253.718 77.0281L251.909 79.9011L246.301 81.1839ZM246.716 79.2686L250.694 78.3582L251.714 76.7325L250.777 72.6653L249.146 71.6485L245.168 72.5589L244.148 74.1846L245.085 78.2518L246.716 79.2686Z" fill="#131C50"/>
<path d="M257.109 78.7129L254.767 68.5449L256.196 68.2198L256.386 69.0356L256.753 68.9528L257.542 67.9183L262.315 66.8246L264.947 68.4681L266.797 76.5019L264.959 76.9216L263.275 69.6031L261.894 68.74L258.449 69.5262L257.275 71.0573L258.941 78.299L257.103 78.7188L257.109 78.7129Z" fill="#131C50"/>
<path d="M271.896 75.3255L269.014 73.5225L267.751 68.0306L269.56 65.1576L274.967 63.9221L277.848 65.7251L278.714 69.4849L270.455 71.3766L270.686 72.3934L272.317 73.4102L278.536 71.9855L278.933 73.7117L271.896 75.3196V75.3255ZM270.052 69.6504L276.479 68.1784L276.177 66.8542L274.546 65.8374L270.769 66.7005L269.75 68.3262L270.052 69.6504Z" fill="#131C50"/>
<path d="M281.18 73.2032L281.038 72.5944L283.664 67.2207L279.158 63.6087L279.016 62.9998L280.854 62.5801L284.536 65.6128L284.862 65.5359L286.913 61.1909L288.627 60.8007L288.769 61.4096L286.291 66.4936L291.052 70.3066L291.194 70.9155L289.356 71.3352L285.384 68.072L285.099 68.137L282.894 72.819L281.18 73.2092V73.2032Z" fill="#131C50"/>
<path d="M295.273 69.9755L292.392 68.1725L291.129 62.6806L292.937 59.8076L298.546 58.5248L301.427 60.3278L302.69 65.8197L300.882 68.6927L295.273 69.9755ZM291.71 58.6962L291.265 56.7631L292.131 55.3857L294.372 54.8714L296.216 56.2665L297.01 56.0833L297.248 55.7049L296.921 54.2802L298.451 53.9315L298.896 55.8645L298.03 57.2419L295.789 57.7563L293.945 56.3611L293.151 56.5444L292.914 56.9168L293.24 58.3415L291.71 58.6903V58.6962ZM295.688 68.0602L299.667 67.1498L300.686 65.5241L299.75 61.4569L298.119 60.4401L294.141 61.3505L293.121 62.9762L294.058 67.0434L295.688 68.0602Z" fill="#131C50"/>
<path d="M308.222 67.0138L305.341 65.2108L304.078 59.7189L305.886 56.8459L311.294 55.6104L314.175 57.4134L315.041 61.1732L306.782 63.0649L307.019 64.0817L308.649 65.0985L314.869 63.6738L315.266 65.4L308.228 67.0079L308.222 67.0138ZM306.379 61.3328L312.806 59.8608L312.503 58.5366L310.873 57.5198L307.102 58.3829L306.082 60.0086L306.384 61.3328H306.379Z" fill="#131C50"/>
<path d="M318.218 64.726L317.821 62.9998L324.45 61.4806L325.001 60.6056L324.746 59.4883L323.869 58.9386L318.87 60.0795L316.742 58.7494L316.179 56.3079L317.513 54.1857L324.55 52.5777L324.948 54.3039L318.728 55.7286L318.177 56.6035L318.408 57.6203L319.285 58.1701L324.284 57.0291L326.412 58.3592L326.999 60.9012L325.665 63.0235L318.218 64.726Z" fill="#131C50"/>
<path d="M249.466 98.3512L72.2441 138.911L68.6689 144.598L73.4358 164.236L79.3885 167.245L255.899 126.851L259.344 121.69L255.105 102.182L249.466 98.3512Z" fill="#131C50"/>
<path d="M286.339 89.6139L266.708 94.1067L263.133 99.7937L267.9 119.432L273.852 122.441L292.772 118.114L296.216 112.953L291.977 93.4446L286.339 89.6139Z" fill="#795BDF"/>
<path d="M275.441 102.708L284.388 104.263L284.738 105.794L277.356 111.043L277.007 109.512L282.888 105.421L275.791 104.239L275.441 102.708Z" fill="white"/>
<path d="M82.2879 158.667L79.4064 156.864L78.1436 151.372L79.9519 148.499L85.6615 147.193L84.7247 143.126L86.5627 142.706L89.8414 156.941L88.4125 157.266L88.1813 156.249L87.7722 156.344L86.782 157.639L82.2938 158.667H82.2879ZM82.7029 156.752L85.8631 156.031L87.2682 154.21L86.0528 148.925L81.1555 150.048L80.1357 151.674L81.0725 155.741L82.7029 156.758V156.752Z" fill="white"/>
<path d="M95.136 155.723L92.2546 153.92L90.9917 148.428L92.8 145.555L98.2072 144.32L101.089 146.123L101.954 149.883L93.6953 151.774L93.9325 152.791L95.5629 153.808L101.782 152.383L102.18 154.109L95.142 155.717L95.136 155.723ZM93.2921 150.042L99.7191 148.57L99.4167 147.246L97.7863 146.229L94.0155 147.092L92.9957 148.718L93.2981 150.042H93.2921Z" fill="white"/>
<path d="M105.132 153.435L104.735 151.709L111.363 150.19L111.915 149.315L111.66 148.198L110.782 147.648L105.784 148.789L103.65 147.459L103.086 145.017L104.42 142.895L111.458 141.287L111.855 143.013L105.636 144.438L105.084 145.313L105.316 146.33L106.193 146.879L111.191 145.738L113.326 147.069L113.913 149.611L112.579 151.733L105.132 153.435Z" fill="white"/>
<path d="M119 150.261L116.119 148.458L114.856 142.966L116.664 140.093L122.071 138.857L124.953 140.66L125.819 144.42L117.56 146.312L117.797 147.329L119.427 148.346L125.647 146.921L126.044 148.647L119.006 150.255L119 150.261ZM117.156 144.586L123.583 143.114L123.281 141.79L121.651 140.773L117.88 141.636L116.86 143.262L117.162 144.586H117.156Z" fill="white"/>
<path d="M129.4 147.884L127.058 137.716L128.486 137.391L128.676 138.207L129.044 138.124L129.832 137.09L134.605 135.996L137.238 137.64L139.087 145.673L137.249 146.093L135.566 138.775L134.184 137.912L130.739 138.698L129.566 140.229L131.232 147.471L129.394 147.89L129.4 147.884Z" fill="white"/>
<path d="M144.66 144.391L138.625 135.712L138.482 135.104L140.237 134.702L145.526 142.375L145.87 142.298L147.275 133.094L148.947 132.709L149.089 133.318L147.477 143.752L144.66 144.397V144.391Z" fill="white"/>
<path d="M155.267 141.961L152.386 140.158L151.123 134.666L152.931 131.793L158.54 130.51L161.422 132.313L162.685 137.805L160.876 140.678L155.267 141.961ZM155.682 140.046L159.661 139.135L160.681 137.51L159.744 133.442L158.113 132.426L154.135 133.336L153.115 134.962L154.052 139.029L155.682 140.046Z" fill="white"/>
<path d="M166.485 139.395L163.603 126.886L161.564 127.353L161.167 125.627L165.044 124.741L168.323 138.976L166.485 139.395Z" fill="white"/>
<path d="M174.092 137.657L168.056 128.979L167.914 128.37L169.669 127.968L174.957 135.642L175.301 135.565L176.706 126.36L178.378 125.976L178.52 126.585L176.908 137.019L174.092 137.663V137.657Z" fill="white"/>
<path d="M179.641 123.54L179.173 121.507L181.212 121.04L181.681 123.073L179.641 123.54ZM182.552 135.718L180.21 125.55L182.048 125.131L184.39 135.299L182.552 135.718Z" fill="white"/>
<path d="M187.45 134.601L185.108 124.433L186.537 124.108L186.727 124.924L187.094 124.841L187.883 123.806L191.636 122.949L193.118 123.872L193.545 123.771L194.719 122.24L198.472 121.383L201.104 123.026L202.954 131.06L201.116 131.48L199.432 124.161L198.051 123.298L195.626 123.854L194.452 125.367L196.124 132.627L194.286 133.046L192.602 125.728L191.221 124.865L188.796 125.42L187.622 126.934L189.294 134.193L187.456 134.613L187.45 134.601Z" fill="white"/>
<path d="M208.047 129.884L205.165 128.081L203.902 122.589L205.711 119.716L211.118 118.48L213.999 120.283L214.865 124.043L206.606 125.935L206.837 126.951L208.468 127.968L214.687 126.544L215.084 128.27L208.047 129.878V129.884ZM206.209 124.203L212.636 122.731L212.333 121.406L210.703 120.39L206.932 121.253L205.912 122.878L206.215 124.203H206.209Z" fill="white"/>
<path d="M218.452 127.501L216.11 117.333L217.539 117.008L217.729 117.824L218.097 117.741L218.885 116.707L223.658 115.613L226.29 117.256L228.14 125.29L226.302 125.71L224.618 118.391L223.237 117.528L219.792 118.315L218.618 119.846L220.284 127.087L218.446 127.507L218.452 127.501Z" fill="white"/>
<path d="M233.239 124.12L231.608 123.103L229.972 115.985L227.932 116.452L227.535 114.726L229.575 114.259L228.964 111.617L230.802 111.197L231.413 113.84L235.083 113L235.48 114.726L231.81 115.566L233.286 121.974L233.66 122.21L237.128 121.418L237.525 123.144L233.245 124.126L233.239 124.12Z" fill="white"/>
<path d="M241.705 122.181L238.824 120.378L237.561 114.886L239.369 112.013L244.978 110.73L247.86 112.533L249.122 118.025L247.314 120.898L241.705 122.181ZM242.12 120.265L246.099 119.355L247.119 117.729L246.182 113.662L244.551 112.645L240.573 113.556L239.553 115.181L240.49 119.249L242.12 120.265Z" fill="white"/>
</g>
<defs>
<clipPath id="clip0_4010_1081">
<rect width="348" height="176" fill="white"/>
</clipPath>
</defs>
</svg>
