<svg width="48" height="48" viewBox="0 0 48 48" fill="none" xmlns="http://www.w3.org/2000/svg">
<path d="M39.654 0.50457L47.0116 7.9382L46.6234 40.4279L38.6898 47.1075H7.85655L0.890847 40.4467L0.50236 8.32471L7.68125 0.50457H39.654ZM41.5682 38.1626L41.7436 38.015L41.7463 37.7858L41.8051 32.7875L41.8076 32.578L41.66 32.4293L40.2038 30.9627L40.0572 30.815H39.849H34.9561H34.7361L34.5874 30.9772L33.1765 32.5169L33.0434 32.6622L33.0452 32.8593L33.0496 33.3416H17.9399L16.02 31.4018V27.7193L17.9399 25.7795H30.2576H30.4662L30.6129 25.6312L34.6648 21.5375L34.8094 21.3914V21.1858V15.0453V14.8397L34.6648 14.6935L30.6129 10.5998L30.4662 10.4516H30.2576H14.46L14.4643 9.99682L14.4663 9.78892L14.3203 9.64093L12.8686 8.16975L12.7218 8.02093H12.5127H7.61527H7.39527L7.24663 8.18313L5.83573 9.72284L5.70202 9.86875L5.7044 10.0666L5.76319 14.9645L5.76571 15.1747L5.91777 15.32L7.32868 16.6678L7.47361 16.8063H7.67406H12.3454H12.5282L12.6679 16.6884L14.2325 15.368L14.4077 15.2202L14.41 14.9911L14.414 14.6132H28.3893L30.3093 16.553V19.6781L28.3893 21.6179H16.0717H15.863L15.7163 21.7661L11.6645 25.8598L11.5198 26.006V26.2116V32.9095V33.1151L11.6645 33.2612L15.7163 37.3549L15.863 37.5032H16.0717H33.0964L33.0995 37.7585L33.102 37.9693L33.2547 38.1146L34.6656 39.4579L34.8104 39.5958H35.0103H39.6817H39.864L40.0035 39.4784L41.5682 38.1626Z" fill="white" stroke="white"/>
</svg>
