<svg width="40" height="40" viewBox="0 0 40 40" fill="none" xmlns="http://www.w3.org/2000/svg">
<path d="M6.78942 32.9005C5.7826 32.9005 4.96362 32.0837 4.96362 31.0795V8.92047C4.96362 7.9163 5.7826 7.09949 6.78942 7.09949H33.2108C34.2176 7.09949 35.0366 7.9163 35.0366 8.92047V31.0795C35.0366 32.0837 34.2176 32.9005 33.2108 32.9005H6.78942ZM6.78942 8.2198C6.40247 8.2198 6.09066 8.53079 6.09066 8.91672V31.0758C6.09066 31.4617 6.40623 31.7727 6.78942 31.7727H33.2108C33.5978 31.7727 33.9096 31.4617 33.9096 31.0758V8.91672C33.9096 8.53079 33.594 8.2198 33.2108 8.2198H6.78942Z" fill="#131C50"/>
<path d="M13.8522 12.7947C14.4559 12.7947 14.9454 12.3066 14.9454 11.7044C14.9454 11.1022 14.4559 10.6141 13.8522 10.6141C13.2484 10.6141 12.7589 11.1022 12.7589 11.7044C12.7589 12.3066 13.2484 12.7947 13.8522 12.7947Z" fill="#131C50"/>
<path d="M10.0879 12.7947C10.6916 12.7947 11.1811 12.3066 11.1811 11.7044C11.1811 11.1022 10.6916 10.6141 10.0879 10.6141C9.4841 10.6141 8.99464 11.1022 8.99464 11.7044C8.99464 12.3066 9.4841 12.7947 10.0879 12.7947Z" fill="#131C50"/>
<path d="M17.3121 12.7947C17.9159 12.7947 18.4054 12.3066 18.4054 11.7044C18.4054 11.1022 17.9159 10.6141 17.3121 10.6141C16.7084 10.6141 16.2189 11.1022 16.2189 11.7044C16.2189 12.3066 16.7084 12.7947 17.3121 12.7947Z" fill="#131C50"/>
<path d="M34.4693 14.9117H5.52338V16.0358H34.4693V14.9117Z" fill="#131C50"/>
<path d="M15.1257 22.4879L11.1961 23.908L15.1257 25.3168V26.8568L9.51683 24.6761V23.1474L15.1257 20.9405V22.4879Z" fill="#131C50"/>
<path d="M22.9736 18.7373L17.7367 28.8801H16.1626L21.3995 18.7373H22.9736Z" fill="#131C50"/>
<path d="M24.0142 20.9442L29.5968 23.1511V24.6798L24.0142 26.8605V25.3206L27.9325 23.9117L24.0142 22.4917V20.9442Z" fill="#131C50"/>
</svg>
