<svg width="512" height="458" viewBox="0 0 512 458" fill="none" xmlns="http://www.w3.org/2000/svg">
<path d="M508.181 211.528C487.57 166.829 457.382 127.208 419.755 95.4747L484.437 30.792L454.251 0.583984L384 70.7707C345.117 48.2793 300.918 36.618 256 37C95.9999 37 22.5493 170.568 3.81861 211.528C1.30422 217.017 0.00268555 222.984 0.00268555 229.021C0.00268555 235.059 1.30422 241.026 3.81861 246.515C24.4295 291.214 54.618 330.834 92.2453 362.568L27.5839 427.251L57.7493 457.416L128 387.229C166.883 409.721 211.082 421.382 256 421C416 421 489.451 287.432 508.181 246.472C510.691 240.989 511.99 235.03 511.99 229C511.99 222.97 510.691 217.011 508.181 211.528ZM42.6666 229.235C58.6666 194.141 121.451 79.6667 256 79.6667C289.485 79.4709 322.531 87.2827 352.384 102.451L314.731 140.104C294.249 126.506 269.694 120.413 245.232 122.859C220.769 125.305 197.906 136.139 180.523 153.523C163.139 170.906 152.305 193.769 149.859 218.232C147.413 242.694 153.506 267.249 167.104 287.731L122.752 332.083C88.6266 304.294 61.2452 269.13 42.6666 229.235ZM320 229C320 245.974 313.257 262.253 301.255 274.255C289.252 286.257 272.974 293 256 293C246.496 292.963 237.124 290.775 228.587 286.6L313.6 201.587C317.775 210.124 319.963 219.496 320 229ZM192 229C192 212.026 198.743 195.747 210.745 183.745C222.747 171.743 239.026 165 256 165C265.504 165.037 274.876 167.225 283.413 171.4L198.4 256.413C194.225 247.876 192.037 238.504 192 229ZM256 378.333C222.515 378.529 189.469 370.717 159.616 355.549L197.269 317.896C217.751 331.494 242.306 337.587 266.768 335.141C291.231 332.695 314.093 321.861 331.477 304.477C348.861 287.094 359.695 264.231 362.141 239.768C364.587 215.306 358.494 190.751 344.896 170.269L389.227 125.939C423.419 153.753 450.816 189.001 469.333 229C453.035 264.349 390.229 378.333 256 378.333Z" fill="#8F8881"/>
</svg>
