<svg width="512" height="400" viewBox="0 0 512 400" fill="none" xmlns="http://www.w3.org/2000/svg">
<path d="M496.448 144.939C463.36 91.0507 388.096 0.640015 256 0.640015C123.904 0.640015 48.64 91.0507 15.552 144.939C5.32326 161.483 -0.0948486 180.549 -0.0948486 200C-0.0948486 219.451 5.32326 238.517 15.552 255.061C48.64 308.949 123.904 399.36 256 399.36C388.096 399.36 463.36 308.949 496.448 255.061C506.677 238.517 512.095 219.451 512.095 200C512.095 180.549 506.677 161.483 496.448 144.939ZM460.075 232.725C431.659 278.933 367.339 356.693 256 356.693C144.661 356.693 80.3413 278.933 51.9253 232.725C45.8482 222.892 42.6293 211.56 42.6293 200C42.6293 188.44 45.8482 177.108 51.9253 167.275C80.3413 121.067 144.661 43.3067 256 43.3067C367.339 43.3067 431.659 120.981 460.075 167.275C466.152 177.108 469.371 188.44 469.371 200C469.371 211.56 466.152 222.892 460.075 232.725Z" fill="#8F8881"/>
<path d="M256 93.3334C234.903 93.3334 214.28 99.5892 196.739 111.31C179.198 123.031 165.526 139.69 157.453 159.18C149.38 178.671 147.267 200.118 151.383 220.81C155.499 241.501 165.658 260.507 180.575 275.425C195.493 290.342 214.499 300.501 235.19 304.617C255.882 308.733 277.329 306.621 296.82 298.547C316.31 290.474 332.969 276.802 344.69 259.261C356.411 241.72 362.667 221.097 362.667 200C362.633 171.721 351.384 144.609 331.387 124.613C311.391 104.616 284.279 93.3672 256 93.3334ZM256 264C243.342 264 230.968 260.246 220.443 253.214C209.919 246.182 201.716 236.186 196.872 224.492C192.028 212.797 190.76 199.929 193.23 187.514C195.699 175.099 201.795 163.696 210.745 154.745C219.696 145.795 231.099 139.699 243.514 137.23C255.929 134.76 268.797 136.028 280.492 140.872C292.186 145.716 302.182 153.919 309.214 164.444C316.246 174.968 320 187.342 320 200C320 216.974 313.257 233.253 301.255 245.255C289.253 257.257 272.974 264 256 264Z" fill="#8F8881"/>
</svg>
