<svg width="40" height="40" viewBox="0 0 40 40" fill="none" xmlns="http://www.w3.org/2000/svg">
<path d="M33.2095 32.9H6.7907C5.78398 32.9 4.96509 32.0833 4.96509 31.0793V8.92062C4.96509 7.91664 5.78398 7.09998 6.7907 7.09998H33.2095C34.2162 7.09998 35.0351 7.91664 35.0351 8.92062V31.0756C35.0351 32.0796 34.2162 32.8962 33.2095 32.8962V32.9ZM6.7907 8.22383C6.40379 8.22383 6.09201 8.53477 6.09201 8.92062V31.0756C6.09201 31.4614 6.40755 31.7724 6.7907 31.7724H33.2095C33.5964 31.7724 33.9082 31.4614 33.9082 31.0756V8.92062C33.9082 8.53477 33.5926 8.22383 33.2095 8.22383H6.7907Z" fill="#131C50"/>
<path d="M13.8565 12.7942C14.4602 12.7942 14.9496 12.3061 14.9496 11.704C14.9496 11.102 14.4602 10.6139 13.8565 10.6139C13.2528 10.6139 12.7634 11.102 12.7634 11.704C12.7634 12.3061 13.2528 12.7942 13.8565 12.7942Z" fill="#131C50"/>
<path d="M10.0926 12.7942C10.6963 12.7942 11.1857 12.3061 11.1857 11.704C11.1857 11.102 10.6963 10.6139 10.0926 10.6139C9.48887 10.6139 8.99946 11.102 8.99946 11.704C8.99946 12.3061 9.48887 12.7942 10.0926 12.7942Z" fill="#131C50"/>
<path d="M17.3124 12.7942C17.9161 12.7942 18.4055 12.3061 18.4055 11.704C18.4055 11.102 17.9161 10.6139 17.3124 10.6139C16.7087 10.6139 16.2193 11.102 16.2193 11.704C16.2193 12.3061 16.7087 12.7942 17.3124 12.7942Z" fill="#131C50"/>
<path d="M34.4716 14.9108H5.52855V16.0346H34.4716V14.9108Z" fill="#131C50"/>
<path d="M15.205 18.8068V19.807C14.882 19.807 14.6604 19.852 14.5439 19.9382C14.4275 20.0243 14.3674 20.2079 14.3674 20.4889V22.1484C14.3749 22.4556 14.3486 22.7103 14.2847 22.9126C14.2209 23.1149 14.1082 23.2723 13.9429 23.3921C13.7776 23.5083 13.541 23.5944 13.2329 23.6469C13.541 23.7331 13.7814 23.8417 13.9504 23.9728C14.1194 24.1002 14.2396 24.2575 14.3073 24.4411C14.3786 24.6246 14.4124 24.8457 14.4124 25.1004V27.4118C14.4124 27.6815 14.4725 27.8614 14.589 27.9438C14.7054 28.0262 14.9271 28.0711 15.2501 28.0711V29.0714C14.6829 29.1463 14.2246 29.1238 13.8715 29.0114C13.5184 28.899 13.2592 28.7117 13.0939 28.457C12.9287 28.2023 12.846 27.8913 12.846 27.5317V24.9131C12.846 24.737 12.8272 24.6059 12.7859 24.5235C12.7446 24.4411 12.6807 24.3736 12.5943 24.3324C12.5079 24.2875 12.3877 24.2388 12.2412 24.1788V23.1224C12.3953 23.07 12.5117 23.0288 12.5943 22.9913C12.6732 22.9538 12.7296 22.8902 12.7596 22.8003C12.7897 22.7103 12.8047 22.5567 12.8047 22.3432V20.354C12.8047 19.9869 12.8873 19.6759 13.0526 19.4249C13.2179 19.1739 13.4771 18.9904 13.8302 18.8742C14.1833 18.7619 14.6416 18.7394 15.2088 18.8143L15.205 18.8068Z" fill="#131C50"/>
<path d="M25.5239 18.8068C26.0986 18.7319 26.5606 18.7544 26.9137 18.8668C27.2668 18.9791 27.5223 19.1627 27.6838 19.4174C27.8453 19.6684 27.928 19.9794 27.928 20.3465V22.3357C27.928 22.5493 27.943 22.6991 27.9731 22.7928C28.0031 22.8864 28.0594 22.9501 28.1458 22.9838C28.2285 23.0213 28.3487 23.0662 28.5027 23.1149V24.1714C28.3562 24.2313 28.236 24.28 28.1458 24.3249C28.0557 24.3699 27.9881 24.4336 27.9468 24.516C27.9054 24.6022 27.8867 24.7295 27.8867 24.9056V27.5242C27.8867 27.8838 27.804 28.191 27.6425 28.4495C27.481 28.708 27.2218 28.8916 26.8724 29.0039C26.5193 29.1163 26.0573 29.1388 25.4826 29.0639V28.0636C25.8131 28.0636 26.0385 28.0224 26.155 27.9363C26.2714 27.8501 26.3315 27.674 26.3315 27.4043V25.0929C26.339 24.8382 26.3766 24.6172 26.4404 24.4336C26.5043 24.25 26.6245 24.0927 26.7935 23.9653C26.9626 23.8379 27.1992 23.7293 27.4997 23.6394C27.1992 23.587 26.9663 23.5045 26.8011 23.3847C26.6358 23.2685 26.5231 23.1074 26.4592 22.9051C26.3954 22.7028 26.3691 22.4481 26.3766 22.1409V20.4814C26.3766 20.2041 26.3165 20.0206 26.2 19.9307C26.0836 19.8408 25.8582 19.7996 25.5276 19.7996V18.7993L25.5239 18.8068Z" fill="#131C50"/>
</svg>
